<svg width="116" height="14" viewBox="0 0 116 14" fill="none" xmlns="http://www.w3.org/2000/svg">
<path d="M5.594 0.926C5.538 1.094 5.482 1.346 5.44 1.542C5.202 2.718 4.964 4.93 4.964 6.848C4.964 8.668 5.356 10.348 5.79 11.664L4.768 11.972C4.362 10.726 3.984 8.738 3.984 6.96C3.984 5.042 4.264 2.774 4.39 1.57C4.418 1.318 4.432 1.066 4.432 0.884L5.594 0.926ZM3.34 2.648C5.804 2.648 8.24 2.452 10.172 2.018L10.186 3.054C8.17 3.404 5.412 3.614 3.326 3.614C2.724 3.614 1.632 3.558 1.058 3.53L1.03 2.48C1.52 2.564 2.738 2.648 3.34 2.648ZM9.178 4.3C9.094 4.482 8.968 4.86 8.884 5.084C8.058 7.674 6.658 9.62 5.188 10.754C4.292 11.44 3.172 11.958 2.178 11.958C1.254 11.958 0.526 11.398 0.526 10.208C0.526 8.29 2.304 6.316 4.376 5.518C5.314 5.154 6.448 4.944 7.358 4.944C10.004 4.944 11.67 6.484 11.67 8.444C11.67 10.446 10.34 12.196 7.092 12.714L6.49 11.776C9.01 11.496 10.578 10.194 10.578 8.388C10.578 7.03 9.43 5.84 7.344 5.84C6.168 5.84 5.132 6.176 4.418 6.498C2.836 7.198 1.576 8.738 1.576 10.026C1.576 10.6 1.856 10.88 2.374 10.88C3.074 10.88 3.984 10.488 4.88 9.704C6.126 8.612 7.274 7.1 7.918 4.832C7.974 4.622 8.044 4.244 8.058 4.02L9.178 4.3ZM15.184 3.18C15.702 3.236 16.304 3.264 16.906 3.264C18.418 3.264 20.182 3.082 21.792 2.55L21.82 3.586C20.448 3.964 18.614 4.272 16.906 4.258C16.388 4.258 15.786 4.244 15.268 4.23L15.184 3.18ZM20.154 0.897999C19.972 1.584 19.678 2.9 19.342 3.894C18.67 5.91 17.382 8.458 16.22 10.026L15.142 9.466C16.388 8.01 17.69 5.518 18.264 3.866C18.572 2.984 18.88 1.752 18.922 0.771999L20.154 0.897999ZM23.458 5.224C23.416 5.798 23.416 6.218 23.43 6.722C23.458 7.632 23.584 9.76 23.584 10.684C23.584 11.804 22.87 12.714 21.134 12.714C19.594 12.714 18.348 12.098 18.348 10.698C18.348 9.41 19.566 8.598 21.134 8.598C23.486 8.598 25.292 9.774 26.44 10.768L25.852 11.72C24.774 10.74 23.164 9.494 21.106 9.494C20.07 9.494 19.37 9.97 19.37 10.614C19.37 11.258 19.916 11.706 21.008 11.706C22.17 11.706 22.562 11.09 22.562 10.334C22.562 9.27 22.408 6.764 22.352 5.224H23.458ZM26.258 5.588C25.502 4.944 23.976 4.09 23.052 3.656L23.612 2.816C24.634 3.25 26.216 4.16 26.888 4.664L26.258 5.588ZM34.868 0.996C34.784 1.304 34.686 1.836 34.63 2.102C34.42 3.11 34.126 4.692 33.734 6.092C33.23 8.08 32.292 10.978 31.55 12.504L30.332 12.098C31.172 10.642 32.152 7.8 32.684 5.826C33.02 4.538 33.384 2.774 33.482 2.046C33.538 1.654 33.566 1.178 33.538 0.884L34.868 0.996ZM31.774 3.334C33.314 3.334 35.372 3.082 37.108 2.648V3.74C35.372 4.132 33.258 4.37 31.746 4.37C31.13 4.37 30.64 4.356 30.122 4.314L30.094 3.222C30.752 3.306 31.256 3.334 31.774 3.334ZM36.198 5.252C36.926 5.182 37.864 5.14 38.76 5.14C39.572 5.14 40.426 5.168 41.182 5.252L41.154 6.316C40.426 6.232 39.614 6.148 38.788 6.148C37.92 6.148 37.052 6.204 36.198 6.302V5.252ZM36.478 8.654C36.366 9.116 36.282 9.55 36.282 9.914C36.282 10.572 36.66 11.216 38.648 11.216C39.572 11.216 40.524 11.118 41.392 10.95L41.35 12.07C40.594 12.182 39.656 12.266 38.634 12.266C36.436 12.266 35.232 11.594 35.232 10.208C35.232 9.676 35.316 9.144 35.442 8.556L36.478 8.654ZM51.402 2.452C51.22 3.908 50.94 5.546 50.506 7.044C49.652 9.914 48.532 11.398 47.244 11.398C45.984 11.398 44.738 9.97 44.738 7.646C44.738 4.608 47.44 1.962 50.87 1.962C54.146 1.962 56.232 4.272 56.232 7.114C56.232 10.04 54.3 12 50.968 12.434L50.324 11.398C50.772 11.356 51.192 11.3 51.528 11.23C53.32 10.824 55.084 9.48 55.084 7.058C55.084 4.818 53.53 2.97 50.842 2.97C47.762 2.97 45.844 5.504 45.844 7.562C45.844 9.326 46.642 10.11 47.272 10.11C47.93 10.11 48.686 9.158 49.4 6.792C49.806 5.462 50.1 3.88 50.24 2.424L51.402 2.452ZM61.286 4.426H69.392V5.42H61.286V4.426ZM61.286 7.744H69.392V8.738H61.286V7.744ZM61.286 11.076H69.392V12.098H61.286V11.076ZM60.558 1.108H70.064V13.05H68.972V2.144H61.608V13.05H60.558V1.108ZM78.968 1.192C78.884 1.5 78.772 2.032 78.716 2.298C78.52 3.306 78.226 4.902 77.834 6.288C77.33 8.276 76.392 11.174 75.65 12.7L74.418 12.294C75.272 10.852 76.252 7.996 76.77 6.022C77.12 4.734 77.484 2.984 77.582 2.242C77.638 1.85 77.666 1.374 77.638 1.08L78.968 1.192ZM75.874 3.53C77.414 3.53 79.472 3.292 81.208 2.844V3.95C79.472 4.342 77.358 4.566 75.846 4.566C75.23 4.566 74.74 4.552 74.222 4.51L74.194 3.432C74.852 3.516 75.356 3.53 75.874 3.53ZM80.298 5.462C81.026 5.392 81.95 5.336 82.86 5.336C83.672 5.336 84.526 5.364 85.282 5.448L85.254 6.512C84.526 6.428 83.714 6.358 82.888 6.358C82.006 6.358 81.152 6.4 80.298 6.498V5.462ZM80.578 8.864C80.466 9.312 80.382 9.76 80.382 10.124C80.382 10.782 80.76 11.426 82.748 11.426C83.658 11.426 84.624 11.314 85.492 11.146L85.45 12.28C84.694 12.378 83.756 12.476 82.734 12.476C80.536 12.476 79.332 11.79 79.332 10.404C79.332 9.872 79.416 9.354 79.542 8.752L80.578 8.864ZM83.756 1.626C84.12 2.116 84.624 2.984 84.918 3.544L84.162 3.88C83.882 3.32 83.392 2.466 83.014 1.934L83.756 1.626ZM85.31 1.052C85.688 1.57 86.22 2.438 86.486 2.97L85.73 3.306C85.436 2.69 84.96 1.906 84.568 1.374L85.31 1.052ZM98.694 1.094C98.652 1.318 98.638 1.598 98.638 1.92C98.624 2.438 98.68 4.804 98.68 5.588C98.68 8.794 98.68 11.09 95.712 12.826L94.69 12.042C95.124 11.86 95.698 11.51 96.048 11.16C97.546 9.858 97.616 8.262 97.616 5.574C97.616 4.678 97.56 2.508 97.518 1.92C97.49 1.612 97.434 1.304 97.378 1.094H98.694ZM93.57 3.992C94.186 4.09 95.068 4.146 95.838 4.146C97.56 4.146 99.548 4.034 100.948 3.712V4.846C99.59 5.07 97.63 5.196 95.852 5.196C95.166 5.196 94.186 5.154 93.57 5.098V3.992ZM91.61 1.304C91.526 1.556 91.428 1.948 91.372 2.214C90.924 4.244 90.434 7.31 90.98 9.606C91.162 9.004 91.47 8.15 91.722 7.464L92.324 7.828C91.988 8.794 91.568 10.222 91.414 10.922C91.372 11.118 91.344 11.384 91.358 11.552C91.358 11.692 91.386 11.874 91.4 12.028L90.434 12.14C90.154 11.272 89.706 9.452 89.706 7.702C89.706 5.42 90.07 3.278 90.238 2.102C90.28 1.794 90.294 1.416 90.308 1.164L91.61 1.304ZM109.25 2.55C110.776 2.816 113.618 2.76 115.004 2.55V3.684C113.506 3.852 110.79 3.852 109.264 3.684L109.25 2.55ZM109.796 8.262C109.67 8.766 109.6 9.158 109.6 9.536C109.6 10.18 110.048 10.81 111.966 10.81C113.212 10.81 114.304 10.698 115.424 10.432L115.452 11.608C114.584 11.79 113.408 11.902 111.952 11.902C109.614 11.902 108.564 11.118 108.564 9.802C108.564 9.34 108.634 8.836 108.788 8.164L109.796 8.262ZM106.59 1.472C106.506 1.71 106.394 2.158 106.338 2.41C106.072 3.712 105.638 6.204 105.638 7.786C105.638 8.458 105.68 9.046 105.764 9.732C106.002 9.102 106.324 8.262 106.562 7.688L107.15 8.15C106.8 9.144 106.282 10.614 106.156 11.286C106.114 11.482 106.086 11.748 106.086 11.916C106.1 12.056 106.114 12.252 106.128 12.406L105.134 12.476C104.854 11.482 104.616 9.872 104.616 7.968C104.616 5.91 105.078 3.516 105.246 2.354C105.288 2.032 105.33 1.682 105.344 1.374L106.59 1.472Z" fill="#124835"/>
</svg>
