<svg width="1132" height="836" viewBox="0 0 1132 836" fill="none" xmlns="http://www.w3.org/2000/svg">
<path d="M1 0.5H0.5V1V834.5V835H1H1131H1131.5V834.5V13.8V13.3H1131H49.2166L37.3648 0.658029L37.2166 0.5H37H1Z" fill="#081F17" fill-opacity="0.95"/>
<path d="M1 0.5H0.5V1V834.5V835H1H1131H1131.5V834.5V13.8V13.3H1131H49.2166L37.3648 0.658029L37.2166 0.5H37H1Z" stroke="#75FF72"/>
<path d="M1 0.5H0.5V1V834.5V835H1H1131H1131.5V834.5V13.8V13.3H1131H49.2166L37.3648 0.658029L37.2166 0.5H37H1Z" stroke="#025000"/>
</svg>
