<svg width="640" height="508" viewBox="0 0 640 508" fill="none" xmlns="http://www.w3.org/2000/svg">
<path d="M27.9799 506.774L27.9791 506.774C13.6839 509.358 0.5 498.376 0.5 483.749V130.151C0.5 118.875 8.58527 109.182 19.659 107.126C19.6597 107.126 19.6604 107.125 19.6611 107.125L612.02 0.878495L612.021 0.878374C626.316 -1.70576 639.5 9.27653 639.5 23.9036V377.561C639.5 388.838 631.414 398.531 620.339 400.587L27.9799 506.774Z" fill="#081F17" fill-opacity="0.5" stroke="url(#paint0_linear_1214_93)"/>
<path d="M92.744 275.901C104.158 285.301 118.412 282.822 129.826 269.394L152.137 243.21C152.963 242.28 152.808 240.834 151.878 240.008L137.004 227.716C136.075 226.941 134.68 227.045 133.854 227.974L118.205 246.308C113.712 251.576 108.857 252.609 104.158 248.787L95.8427 241.867C95.3263 241.454 95.0164 240.782 95.0164 240.163V190.325C95.0164 189.808 95.223 189.292 95.5328 188.878L104.158 178.756C108.857 173.23 113.712 172.61 118.205 176.277L133.596 188.982C134.525 189.756 135.92 189.653 136.746 188.724L152.188 170.596C153.014 169.666 152.86 168.22 151.93 167.394L129.877 149.215C118.464 139.763 104.209 142.242 92.7956 155.619L69.3485 182.991C68.987 183.404 68.832 183.92 68.832 184.437V255.192C68.832 255.863 69.1419 256.483 69.6584 256.947L92.7956 275.85L92.744 275.901Z" fill="#E62E05"/>
<path d="M359.76 180.719L348.243 171.268C347.262 170.493 347.158 169.047 347.933 168.118L357.539 156.755C368.746 143.483 368.953 133.515 357.539 124.219L338.43 108.57C337.965 108.157 337.294 108.002 336.623 108.105L246.966 123.599L226.721 127.111C225.636 127.317 224.861 128.247 224.861 129.332V167.446C224.861 168.014 224.655 168.531 224.345 168.944L215.668 179.066C210.969 184.489 206.475 185.367 201.827 181.494L193.461 174.625C192.944 174.16 192.634 173.54 192.634 172.869V135.684C192.634 134.29 191.395 133.257 190.001 133.463L168.258 137.182C167.173 137.388 166.398 138.318 166.398 139.402V186.762C166.398 187.433 166.708 188.053 167.225 188.518L194.804 211.345C195.32 211.81 195.63 212.429 195.63 213.101V260.563C195.63 261.958 196.869 262.991 198.264 262.784L220.007 258.962C221.091 258.756 221.866 257.826 221.866 256.742V208.298C221.866 207.781 222.072 207.265 222.382 206.852L250.581 173.695C250.891 173.282 251.097 172.766 251.097 172.249V149.009L264.938 146.633L273.718 145.135L308.424 139.093L320.458 137.027V136.924L326.19 135.994C326.81 135.891 327.481 136.046 327.946 136.459L332.388 140.126C336.726 143.637 337.087 148.544 332.388 154.07L327.688 159.596C327.378 159.957 326.913 160.216 326.397 160.319L320.458 161.352L308.424 163.418V151.746C308.424 150.403 307.185 149.318 305.79 149.577L284.047 153.244C282.963 153.45 282.188 154.38 282.188 155.464V245.328C282.188 246.722 283.428 247.755 284.822 247.549L337.604 238.201C338.12 238.097 338.585 237.839 338.895 237.478L359.76 213.101C371.174 199.776 371.174 190.119 359.76 180.719ZM334.66 206.18L327.688 214.34C327.378 214.702 326.913 214.96 326.397 215.063L311.058 217.801C309.664 218.007 308.424 216.974 308.424 215.58V191.41C308.424 190.325 309.199 189.396 310.283 189.189L326.19 186.452C326.81 186.348 327.481 186.503 327.946 186.917L334.66 192.236C339.36 195.903 339.36 200.654 334.66 206.18Z" fill="#E62E05"/>
<path d="M575.516 183.769L546.285 155.622C545.097 154.485 545.458 152.471 547.008 151.955C558.886 147.668 567.149 138.579 567.149 123.756V93.5436C567.149 77.2752 557.44 69.3734 540.913 72.1622L453.632 87.2944L451.463 87.656H451.36C451.36 87.656 451.102 87.7076 450.998 87.7076L442.58 89.1537L373.375 101.135C372.29 101.342 371.516 102.272 371.516 103.356V127.475L378.075 126.39C384.634 125.254 388.042 127.836 388.042 134.344V202.774C388.042 218.939 397.752 227.099 414.278 224.156L453.787 217.183C454.872 216.977 455.646 216.047 455.646 214.963V193.53C455.646 192.135 454.407 191.102 453.013 191.361L423.988 196.422C417.429 197.61 414.278 194.821 414.278 188.313V171.787C414.278 170.702 415.053 169.773 416.137 169.566L447.228 164.143C448.313 163.937 449.087 163.007 449.087 161.922V140.49C449.087 139.095 447.848 138.062 446.454 138.269L416.912 143.433C415.518 143.64 414.278 142.607 414.278 141.213V122C414.278 120.916 415.053 119.986 416.137 119.78L451.153 113.685L453.632 113.272L467.422 110.897L476.46 109.347L512.612 103.046L523.096 101.187L531.204 99.7927C537.763 98.7081 540.913 101.29 540.913 107.746V118.643C540.913 125.202 537.763 128.869 531.204 130.005L526.763 130.78L512.612 133.259V117.249C512.612 115.855 511.372 114.822 510.029 115.028L488.235 118.747C487.202 118.953 486.376 119.883 486.376 120.967V208.765C486.376 210.16 487.615 211.192 489.01 210.986L510.752 207.164C511.837 206.958 512.612 206.028 512.612 204.943V164.608C512.612 162.594 515.091 161.613 516.485 163.059L554.445 202.981C555.271 203.859 556.665 203.91 557.543 203.084L575.464 187.074C576.446 186.196 576.497 184.698 575.516 183.769Z" fill="#E62E05"/>
<path d="M231.463 364.007C230.327 362.871 230.637 360.857 232.186 360.34C244.065 356.002 252.38 346.861 252.38 331.78V301.361C252.38 284.989 242.67 277.036 226.144 279.928L145.421 294.131L140.102 295.112L137.984 295.525L65.1639 308.333C64.0794 308.54 63.3047 309.469 63.3047 310.554V334.931L69.8637 333.795C76.4227 332.555 79.8313 335.137 79.8313 341.748V434.245C79.8313 435.64 81.0708 436.673 82.4652 436.414L104.208 432.489C105.293 432.283 106.067 431.353 106.067 430.269V383.891C106.067 382.806 106.842 381.877 107.927 381.67L139.017 376.092C140.102 375.886 140.877 374.956 140.877 373.872V352.232C140.877 350.838 139.637 349.805 138.243 350.063L108.701 355.279C107.307 355.537 106.067 354.504 106.067 353.11V329.198C106.067 328.113 106.842 327.184 107.927 326.977L141.858 320.935V321.038L150.792 319.437L161.69 317.474C162.051 317.371 162.361 317.371 162.723 317.268H163.136L197.842 311.122V311.019L209.204 309.108L216.434 307.817C222.993 306.629 226.144 309.263 226.144 315.77V326.719C226.144 333.278 222.993 337.048 216.434 338.236L211.993 339.011L197.842 341.541V325.583C197.842 324.188 196.602 323.156 195.208 323.362L173.465 327.081C172.38 327.287 171.606 328.217 171.606 329.301V417.719C171.606 419.113 172.845 420.146 174.24 419.888L195.982 416.014C197.067 415.808 197.842 414.878 197.842 413.794V373.149C197.842 371.083 200.321 370.101 201.715 371.599L239.675 411.728C240.501 412.606 241.895 412.657 242.773 411.831L260.746 395.614C261.676 394.736 261.727 393.239 260.798 392.309L231.463 364.007Z" fill="#E62E05"/>
<path d="M339.701 265.214C328.236 255.866 313.827 258.449 302.413 271.825L278.45 299.868C277.055 301.469 276.332 303.535 276.332 305.601V365.975C276.332 368.66 277.52 371.139 279.586 372.844L302.413 391.436C313.827 400.732 328.236 398.15 339.701 384.722L363.458 356.73C364.801 355.129 365.576 353.115 365.576 350.998V290.675C365.576 288.041 364.388 285.511 362.322 283.858L339.701 265.214ZM339.34 347.692C339.34 348.209 339.133 348.725 338.823 349.138L328.081 361.843C323.588 367.318 318.681 368.196 314.033 364.374L303.394 355.749C302.878 355.336 302.568 354.664 302.568 353.993V308.958C302.568 308.442 302.775 307.925 303.084 307.512L314.033 294.704C318.681 289.229 323.588 288.351 328.081 292.225L338.513 300.901C339.03 301.314 339.34 301.934 339.34 302.606V347.692Z" fill="#E62E05"/>
<path d="M447.652 295.89L433.552 298.421C432.468 298.628 431.693 299.557 431.693 300.642V324.812L437.684 323.727C444.243 322.54 447.652 325.277 447.652 332.352L439.543 341.958C435.05 347.381 430.195 348.259 425.496 344.489L414.908 335.864C414.392 335.451 414.082 334.78 414.082 334.108V286.956C414.082 286.439 414.289 285.923 414.598 285.51L423.275 275.387C427.923 269.913 432.829 269.241 437.322 272.908L450.441 283.702C451.37 284.477 452.765 284.373 453.591 283.444L469.033 265.419C469.859 264.49 469.704 263.044 468.775 262.217L448.994 245.949C437.581 236.653 423.327 239.183 411.861 252.508L388.466 279.777C388.104 280.19 387.949 280.707 387.949 281.223V349.189C387.949 349.86 388.259 350.48 388.776 350.945L413.979 371.448C425.444 380.744 439.853 378.11 451.267 364.734L473.474 338.653C473.836 338.24 473.991 337.723 473.991 337.207V317.272C473.991 301.107 464.023 293.05 447.755 295.942L447.652 295.89Z" fill="#E62E05"/>
<path d="M540.928 276.117L528.946 278.286C522.387 279.422 519.185 276.685 519.185 270.178V263.722C519.185 257.215 522.387 253.496 528.946 252.308L558.746 247.041C559.83 246.834 560.605 245.904 560.605 244.82V223.439C560.605 222.044 559.366 221.011 557.971 221.218L519.185 228.035C502.71 230.979 492.949 242.341 492.949 258.661V284.639C492.949 300.752 502.71 308.86 519.185 305.917L531.219 303.748C537.778 302.611 540.928 305.194 540.928 311.649V318.157C540.928 324.612 537.778 328.537 531.219 329.725L496.874 335.871C495.79 336.078 495.015 337.007 495.015 338.092V359.525C495.015 360.919 496.255 362.004 497.649 361.746L540.928 353.947C557.455 351.003 567.164 339.435 567.164 323.321V297.395C567.164 281.075 557.455 273.225 540.928 276.117Z" fill="#E62E05"/>
<defs>
<linearGradient id="paint0_linear_1214_93" x1="320" y1="0" x2="320" y2="507.652" gradientUnits="userSpaceOnUse">
<stop stop-color="#00FFA6" stop-opacity="0.1"/>
<stop offset="1" stop-color="#02FFA6" stop-opacity="0.1"/>
</linearGradient>
</defs>
</svg>
