<svg width="61" height="586" viewBox="0 0 61 586" fill="none" xmlns="http://www.w3.org/2000/svg">
<g style="mix-blend-mode:overlay">
<path d="M26 383L31 378H61V576L56 581L51 586H21V388L26 383Z" fill="#FFFEF3" fill-opacity="0.06"/>
</g>
<path d="M37.984 548.72C44.368 548.72 47.656 550.112 50.128 555.584L48.592 557.192C46.936 552.824 44.872 550.664 38.128 550.664L32.296 550.664C31.36 550.664 30.568 550.736 30.352 550.784L30.352 548.6C30.592 548.624 31.36 548.72 32.296 548.72L37.984 548.72ZM30.496 557.384C30.712 557.408 31.408 557.48 32.224 557.48L41.032 557.48C41.92 557.48 42.976 557.408 43.192 557.384L43.192 559.52C42.976 559.496 41.944 559.4 41.032 559.4L32.224 559.4C31.72 559.4 31.048 559.448 30.496 559.52L30.496 557.384ZM35.152 564.392C35.176 564.176 35.32 563 35.32 561.992L35.32 546.104C35.32 545.024 35.224 544.232 35.176 543.896L37.216 543.896C37.192 544.16 37.144 545.024 37.144 546.08L37.144 561.992C37.144 563.048 37.216 564.128 37.216 564.392L35.152 564.392ZM40.336 539.936C39.232 535.784 37.528 532.136 35.872 529.472C34.288 526.952 32.224 524.552 30.208 522.896L31.72 521.288C33.856 523.352 35.872 525.872 37.624 528.68C39.256 531.32 41.008 535.136 42.208 539L40.336 539.936ZM36.856 529.856L36.232 527.792L47.2 527.792C48.088 527.792 49.288 527.744 49.744 527.624L49.744 530C49.288 529.928 48.088 529.856 47.2 529.856L36.856 529.856ZM30.304 500.109C31.168 499.509 32.632 498.645 33.592 498.141L34.168 499.461C33.208 499.917 31.768 500.733 30.856 501.381L30.304 500.109ZM29.344 497.469C30.232 496.845 31.72 495.909 32.608 495.477L33.184 496.749C32.152 497.277 30.784 498.069 29.896 498.741L29.344 497.469ZM41.8 513.261C39.304 512.205 35.656 511.221 32.896 510.885L33.328 508.749C33.856 508.917 34.576 509.085 35.08 509.205C36.568 509.517 40.12 510.357 42.592 511.365C44.776 512.253 47.248 513.573 49.192 514.917L48.328 516.957C46.312 515.445 43.792 514.077 41.8 513.261ZM40.888 501.429C38.416 502.389 35.08 503.877 33.28 504.909L32.632 502.965C34.384 502.029 37.696 500.493 40.216 499.461C42.592 498.501 46.264 497.229 48.448 496.581L49.12 498.717C46.696 499.317 43.432 500.445 40.888 501.429ZM38.608 492.045C38.68 491.301 38.752 490.053 38.752 488.685C38.752 486.933 38.752 477.309 38.752 475.533C38.752 474.333 38.656 473.493 38.608 472.941L40.96 472.941C40.936 473.445 40.864 474.453 40.864 475.509C40.864 477.333 40.864 486.909 40.864 488.685C40.864 490.005 40.912 491.277 40.96 492.045L38.608 492.045ZM30.136 458.301C30.688 458.349 31.504 458.397 32.08 458.421C41.872 458.733 46.36 461.373 49.648 466.101L48.232 467.853C47.824 467.085 47.152 466.125 46.48 465.405C43.768 462.405 39.712 460.437 32.128 460.389C31.576 460.389 30.688 460.437 30.136 460.533L30.136 458.301ZM35.128 449.949C35.536 450.021 35.968 450.069 36.28 450.093C38.608 450.165 45.568 450.477 47.872 451.557C48.904 452.037 49.336 452.805 49.336 454.125C49.336 455.325 49.264 456.717 49.168 457.965L47.176 458.205C47.344 456.909 47.464 455.661 47.464 454.629C47.464 453.957 47.248 453.501 46.672 453.237C44.824 452.325 38.92 452.013 36.352 452.013L36.352 464.661C36.352 465.621 36.376 466.581 36.448 467.445L34.432 467.445C34.504 466.605 34.552 465.621 34.552 464.685L34.552 452.829C34.552 452.181 34.504 451.725 34.432 451.317L35.128 449.949ZM32.968 442.989C33.04 442.365 33.088 441.477 33.088 440.973L33.088 427.797C33.088 427.053 33.04 426.309 32.968 425.733L35.056 425.733C35.008 426.333 34.96 427.101 34.96 427.797L34.96 440.973C34.96 441.453 35.008 442.389 35.056 442.989L32.968 442.989ZM47.056 435.573L34.168 435.573L34.168 433.533L47.056 433.533L47.056 435.573ZM45.88 444.453C45.976 443.757 46.024 443.013 46.024 442.341L46.024 426.477C46.024 425.757 45.928 425.109 45.88 424.509L48.04 424.509C47.968 425.133 47.968 426.021 47.968 426.477L47.968 442.341C47.968 442.989 47.992 443.733 48.04 444.453L45.88 444.453ZM48.496 409.917C48.136 409.821 47.632 409.749 47.152 409.749C46.048 409.749 34.288 409.749 32.776 409.749C31.864 409.749 31.192 409.869 31 409.869L31 407.661C31.192 407.685 31.888 407.781 32.8 407.781C34.288 407.781 45.904 407.781 46.624 407.781C45.616 405.549 43.432 402.597 40.72 400.773L42.376 399.621C45.184 401.709 47.632 405.021 49.024 407.805C49.216 408.213 49.432 408.453 49.552 408.645L48.496 409.917ZM48.4 420.909C46.96 418.869 44.824 417.453 42.496 416.733C40.288 416.013 35.512 416.013 32.824 416.013C32.128 416.013 31.6 416.061 31.096 416.181L31.096 413.973C31.36 413.997 32.104 414.093 32.8 414.093C35.464 414.093 40.624 414.165 43.024 414.813C45.592 415.533 47.92 417.069 49.6 419.085L48.4 420.909Z" fill="#FFFEF3" fill-opacity="0.15"/>
<path d="M11 581.088L11 582.672C11 582.853 10.9093 582.965 10.728 583.008L1.016 585.664C0.813333 585.728 0.712 585.648 0.712 585.424L0.712 584.288C0.712 584.117 0.802666 584.016 0.983999 583.984L9.336 581.92L9.336 581.856L0.983999 579.808C0.802666 579.765 0.712 579.659 0.712 579.488L0.712 578.368C0.712 578.144 0.813333 578.059 1.016 578.112L10.728 580.784C10.9093 580.827 11 580.928 11 581.088ZM11 570.597L11 575.717C11 575.898 10.9093 575.989 10.728 575.989L0.983999 575.989C0.802666 575.989 0.711999 575.898 0.711999 575.717L0.711999 570.597C0.711999 570.426 0.802666 570.341 0.983999 570.341L1.8 570.341C1.98133 570.341 2.072 570.426 2.072 570.597L2.072 574.245C2.072 574.373 2.12533 574.437 2.232 574.437L4.936 574.437C5.04267 574.437 5.096 574.373 5.096 574.245L5.096 571.157C5.096 570.965 5.18667 570.869 5.368 570.869L6.184 570.869C6.36533 570.869 6.456 570.965 6.456 571.157L6.456 574.245C6.456 574.373 6.50933 574.437 6.616 574.437L9.464 574.437C9.58133 574.437 9.64 574.373 9.64 574.245L9.64 570.597C9.64 570.426 9.73067 570.341 9.912 570.341L10.728 570.341C10.9093 570.341 11 570.426 11 570.597ZM11 566.381L11 567.389C11 567.571 10.9093 567.661 10.728 567.661L0.983998 567.661C0.802666 567.661 0.711999 567.571 0.711999 567.389L0.711999 563.645C0.711999 562.867 0.935999 562.259 1.384 561.821C1.82133 561.373 2.42933 561.149 3.208 561.149L4.552 561.149C5.77867 561.149 6.552 561.656 6.872 562.669L6.936 562.669L10.68 560.893C10.8933 560.776 11 560.845 11 561.101L11 562.093C11 562.349 10.9093 562.515 10.728 562.589L7.048 564.301L7.048 565.917C7.048 566.045 7.10133 566.109 7.208 566.109L10.728 566.109C10.9093 566.109 11 566.2 11 566.381ZM5.768 565.933L5.768 563.901C5.768 563.112 5.37867 562.717 4.6 562.717L3.256 562.717C2.46667 562.717 2.072 563.112 2.072 563.901L2.072 565.933C2.072 566.051 2.12533 566.109 2.232 566.109L5.608 566.109C5.71467 566.109 5.768 566.051 5.768 565.933ZM8.504 558.541L8.088 558.541C7.90667 558.541 7.816 558.451 7.816 558.269L7.816 557.245C7.816 557.064 7.90667 556.973 8.088 556.973L8.376 556.973C8.824 556.973 9.14933 556.877 9.352 556.685C9.544 556.483 9.64 556.152 9.64 555.693L9.64 554.589C9.64 554.131 9.53867 553.8 9.336 553.597C9.12267 553.395 8.78133 553.293 8.312 553.293L7.944 553.293C7.60267 553.293 7.336 553.427 7.144 553.693C6.94133 553.949 6.81333 554.269 6.76 554.653C6.696 555.037 6.61066 555.459 6.504 555.917C6.39733 556.376 6.27467 556.797 6.136 557.181C5.99733 557.565 5.736 557.891 5.352 558.157C4.968 558.413 4.47733 558.541 3.88 558.541L3.208 558.541C2.42933 558.541 1.82133 558.323 1.384 557.885C0.935999 557.437 0.711999 556.824 0.711999 556.045L0.711999 554.349C0.711998 553.56 0.935998 552.947 1.384 552.509C1.82133 552.061 2.42933 551.837 3.208 551.837L3.56 551.837C3.74133 551.837 3.832 551.928 3.832 552.109L3.832 553.133C3.832 553.315 3.74133 553.405 3.56 553.405L3.352 553.405C2.89333 553.405 2.568 553.507 2.376 553.709C2.17333 553.901 2.072 554.227 2.072 554.685L2.072 555.693C2.072 556.152 2.17866 556.483 2.392 556.685C2.59466 556.877 2.94666 556.973 3.448 556.973L3.944 556.973C4.424 556.973 4.74933 556.627 4.92 555.933C4.99466 555.624 5.05866 555.288 5.112 554.925C5.16533 554.552 5.24533 554.179 5.352 553.805C5.45866 553.432 5.60266 553.091 5.784 552.781C5.95467 552.472 6.22133 552.221 6.584 552.029C6.936 551.837 7.368 551.741 7.88 551.741L8.504 551.741C9.28267 551.741 9.896 551.965 10.344 552.413C10.7813 552.851 11 553.459 11 554.237L11 556.029C11 556.808 10.7813 557.421 10.344 557.869C9.896 558.317 9.28267 558.541 8.504 558.541ZM0.983998 547.312L10.728 547.312C10.9093 547.312 11 547.403 11 547.584L11 548.592C11 548.773 10.9093 548.864 10.728 548.864L0.983998 548.864C0.802665 548.864 0.711998 548.773 0.711998 548.592L0.711998 547.584C0.711998 547.403 0.802665 547.312 0.983998 547.312ZM9.64 541.713L9.64 540.321C9.64 539.542 9.24533 539.153 8.456 539.153L3.256 539.153C2.46666 539.153 2.072 539.542 2.072 540.321L2.072 541.713C2.072 542.481 2.46666 542.865 3.256 542.865L8.456 542.865C9.24533 542.865 9.64 542.481 9.64 541.713ZM11 540.081L11 541.937C11 542.726 10.7813 543.34 10.344 543.777C9.90666 544.204 9.29866 544.417 8.52 544.417L3.192 544.417C2.40266 544.417 1.79466 544.204 1.368 543.777C0.930664 543.34 0.711998 542.726 0.711998 541.937L0.711998 540.081C0.711998 539.292 0.930664 538.678 1.368 538.241C1.79466 537.804 2.40266 537.585 3.192 537.585L8.52 537.585C9.29866 537.585 9.90666 537.804 10.344 538.241C10.7813 538.678 11 539.292 11 540.081ZM11 533.525L11 534.517C11 534.698 10.9093 534.789 10.728 534.789L0.983997 534.789C0.802664 534.789 0.711998 534.698 0.711998 534.517L0.711998 533.621C0.711998 533.45 0.770664 533.333 0.887997 533.269L7.848 529.397L7.848 529.333L0.983997 529.333C0.802664 529.333 0.711997 529.242 0.711997 529.061L0.711997 528.069C0.711997 527.888 0.802664 527.797 0.983997 527.797L10.728 527.797C10.9093 527.797 11 527.888 11 528.069L11 528.933C11 529.104 10.9147 529.242 10.744 529.349L3.864 533.189L3.864 533.253L10.728 533.253C10.9093 533.253 11 533.344 11 533.525ZM10.728 520.704L9.256 520.704C8.59466 520.704 8.04 520.422 7.592 519.856L5.128 516.832C4.72266 516.32 4.25333 516.064 3.72 516.064L3.192 516.064C2.424 516.064 2.04 516.464 2.04 517.264L2.04 518.048C2.04 518.454 2.13066 518.747 2.312 518.928C2.49333 519.11 2.78666 519.2 3.192 519.2L3.784 519.2C3.976 519.2 4.072 519.291 4.072 519.472L4.072 520.496C4.072 520.678 3.976 520.768 3.784 520.768L3.16 520.768C2.38133 520.768 1.77866 520.55 1.352 520.112C0.92533 519.675 0.711997 519.062 0.711997 518.272L0.711997 517.024C0.711997 516.246 0.92533 515.638 1.352 515.2C1.77866 514.763 2.38133 514.544 3.16 514.544L3.816 514.544C4.648 514.544 5.33066 514.87 5.864 515.52L8.376 518.592C8.57866 518.838 8.81866 518.96 9.096 518.96L9.608 518.96L9.608 514.8C9.608 514.608 9.69866 514.512 9.88 514.512L10.728 514.512C10.9093 514.512 11 514.608 11 514.8L11 520.416C11 520.608 10.9093 520.704 10.728 520.704ZM8.776 510.699L10.728 510.699C10.9093 510.699 11 510.785 11 510.955L11 512.043C11 512.225 10.9093 512.315 10.728 512.315L8.776 512.315C8.60533 512.315 8.52 512.225 8.52 512.043L8.52 510.955C8.52 510.785 8.60533 510.699 8.776 510.699ZM9.64 505.608L9.64 504.472C9.64 503.704 9.24533 503.32 8.456 503.32L3.256 503.32C2.46666 503.32 2.072 503.704 2.072 504.472L2.072 505.608C2.072 506.376 2.46666 506.76 3.256 506.76L8.456 506.76C9.24533 506.76 9.64 506.376 9.64 505.608ZM11 504.248L11 505.848C11 506.637 10.7813 507.251 10.344 507.688C9.90666 508.125 9.29866 508.344 8.52 508.344L3.192 508.344C2.40266 508.344 1.79466 508.125 1.368 507.688C0.930663 507.251 0.711996 506.637 0.711996 505.848L0.711996 504.248C0.711996 503.469 0.930663 502.861 1.368 502.424C1.79466 501.987 2.40266 501.768 3.192 501.768L8.52 501.768C9.29866 501.768 9.90666 501.987 10.344 502.424C10.7813 502.861 11 503.469 11 504.248Z" fill="#081F17"/>
<g style="mix-blend-mode:overlay">
<rect x="57" width="4" height="358" fill="#FFFEF3" fill-opacity="0.06"/>
</g>
</svg>
