<svg width="14" height="12" viewBox="0 0 14 12" fill="none" xmlns="http://www.w3.org/2000/svg">
<path d="M13.7018 9.46114L11.4282 11.8366C11.3788 11.8882 11.319 11.9293 11.2525 11.9574C11.1861 11.9855 11.1144 12 11.042 12H0.26395C0.212521 12 0.162214 11.9854 0.119209 11.9579C0.076204 11.9304 0.0423736 11.8913 0.0218749 11.8454C0.00137622 11.7994 -0.00489792 11.7486 0.00382339 11.6993C0.0125447 11.6499 0.0358815 11.6041 0.0709666 11.5674L2.34629 9.192C2.39558 9.14054 2.45519 9.09948 2.52142 9.07137C2.58766 9.04325 2.65912 9.02869 2.73138 9.02857H13.5088C13.5602 9.02857 13.6105 9.04321 13.6535 9.07068C13.6965 9.09816 13.7303 9.13728 13.7509 9.18322C13.7714 9.22917 13.7776 9.27994 13.7689 9.32932C13.7602 9.3787 13.7369 9.42451 13.7018 9.46114ZM11.4282 4.67771C11.3788 4.62611 11.319 4.58497 11.2525 4.55685C11.1861 4.52875 11.1144 4.51425 11.042 4.51429H0.26395C0.212521 4.51429 0.162214 4.52892 0.119209 4.5564C0.076204 4.58388 0.0423736 4.62299 0.0218749 4.66893C0.00137622 4.71488 -0.00489792 4.76566 0.00382339 4.81504C0.0125447 4.8644 0.0358815 4.91022 0.0709666 4.94686L2.34629 7.32229C2.39558 7.37375 2.45519 7.4148 2.52142 7.44292C2.58766 7.47102 2.65912 7.4856 2.73138 7.48571H13.5088C13.5602 7.48571 13.6105 7.47108 13.6535 7.4436C13.6965 7.41612 13.7303 7.37701 13.7509 7.33107C13.7714 7.28512 13.7776 7.23434 13.7689 7.18496C13.7602 7.1356 13.7369 7.08978 13.7018 7.05314L11.4282 4.67771ZM0.26395 2.97143H11.042C11.1144 2.97146 11.1861 2.95698 11.2525 2.92886C11.319 2.90074 11.3788 2.8596 11.4282 2.808L13.7018 0.432571C13.7369 0.395941 13.7602 0.350125 13.7689 0.30075C13.7776 0.251375 13.7714 0.200595 13.7509 0.154647C13.7303 0.1087 13.6965 0.0695858 13.6535 0.0421122C13.6105 0.0146385 13.5602 1.69192e-06 13.5088 0H2.73138C2.65912 0.000119781 2.58766 0.0146862 2.52142 0.0427975C2.45519 0.0709088 2.39558 0.111966 2.34629 0.163429L0.0715531 2.53886C0.036502 2.57545 0.0131754 2.62122 0.00443434 2.67053C-0.00430676 2.71985 0.0019176 2.7706 0.022344 2.81652C0.0427705 2.86245 0.076511 2.90156 0.119428 2.92908C0.162345 2.9566 0.212572 2.97131 0.26395 2.97143Z" fill="url(#paint0_linear_559_224)"/>
<defs>
<linearGradient id="paint0_linear_559_224" x1="1.16258" y1="12.286" x2="12.1354" y2="-0.411303" gradientUnits="userSpaceOnUse">
<stop offset="0.08" stop-color="#9945FF"/>
<stop offset="0.3" stop-color="#8752F3"/>
<stop offset="0.5" stop-color="#5497D5"/>
<stop offset="0.6" stop-color="#43B4CA"/>
<stop offset="0.72" stop-color="#28E0B9"/>
<stop offset="0.97" stop-color="#19FB9B"/>
</linearGradient>
</defs>
</svg>
