<svg width="27" height="20" viewBox="0 0 27 20" fill="none" xmlns="http://www.w3.org/2000/svg">
<path fill-rule="evenodd" clip-rule="evenodd" d="M25.405 2.29526C25.808 2.69828 26.0981 3.20012 26.2461 3.75053C26.7869 5.77516 26.7891 10.0021 26.7891 10.0021C26.7891 10.0021 26.7891 14.2289 26.2461 16.2537C26.0981 16.8041 25.808 17.3059 25.405 17.7089C25.002 18.1119 24.5001 18.4019 23.9497 18.5499C21.9251 19.093 13.8027 19.093 13.8027 19.093C13.8027 19.093 5.68044 19.093 3.65564 18.5499C3.10528 18.4019 2.60347 18.1119 2.20048 17.7089C1.79749 17.3059 1.50747 16.8041 1.35947 16.2537C0.816406 14.2289 0.816406 10.002 0.816406 10.002C0.816406 10.002 0.816406 5.77516 1.35947 3.75053C1.50746 3.20014 1.79748 2.69831 2.20046 2.29529C2.60345 1.89228 3.10527 1.60222 3.65564 1.4542C5.68044 0.911133 13.8027 0.911133 13.8027 0.911133C13.8027 0.911133 21.9251 0.911133 23.9497 1.4542C24.5001 1.6022 25.002 1.89224 25.405 2.29526ZM17.951 10.0027L11.2033 13.8983V6.10738L17.951 10.0027Z" fill="white" fill-opacity="0.35"/>
</svg>
