<svg width="99" height="30" viewBox="0 0 99 30" fill="none" xmlns="http://www.w3.org/2000/svg">
<path d="M0 6H10L16 0H99V25L96.5 27.5L94 30H0V6Z" fill="#E62E05"/>
<path d="M20.606 20H19.08C18.3427 20 17.7733 19.804 17.372 19.412C16.9707 19.02 16.77 18.4553 16.77 17.718V13.28C16.77 12.5427 16.9707 11.978 17.372 11.586C17.7733 11.194 18.3427 10.998 19.08 10.998H20.606C21.334 10.998 21.8987 11.1987 22.3 11.6C22.7107 11.992 22.916 12.552 22.916 13.28V13.938C22.916 14.1433 22.8133 14.246 22.608 14.246H21.432C21.236 14.246 21.138 14.1433 21.138 13.938V13.364C21.138 13.0653 21.0727 12.8553 20.942 12.734C20.8207 12.6033 20.6107 12.538 20.312 12.538H19.36C19.0707 12.538 18.8607 12.6033 18.73 12.734C18.6087 12.8553 18.548 13.0653 18.548 13.364V17.634C18.548 17.9327 18.6087 18.1473 18.73 18.278C18.8607 18.3993 19.0707 18.46 19.36 18.46H20.312C20.6107 18.46 20.8207 18.3993 20.942 18.278C21.0727 18.1473 21.138 17.9327 21.138 17.634V17.06C21.138 16.8547 21.236 16.752 21.432 16.752H22.608C22.8133 16.752 22.916 16.8547 22.916 17.06V17.718C22.916 18.446 22.7107 19.0107 22.3 19.412C21.8987 19.804 21.334 20 20.606 20ZM30.1832 20H25.5772C25.3812 20 25.2832 19.902 25.2832 19.706V11.292C25.2832 11.096 25.3812 10.998 25.5772 10.998H26.7672C26.9632 10.998 27.0612 11.096 27.0612 11.292V18.292C27.0612 18.3947 27.1172 18.446 27.2292 18.446H30.1832C30.3699 18.446 30.4632 18.5487 30.4632 18.754V19.706C30.4632 19.902 30.3699 20 30.1832 20ZM37.2843 20H32.7063C32.5103 20 32.4123 19.902 32.4123 19.706V11.292C32.4123 11.096 32.5103 10.998 32.7063 10.998H37.2843C37.4709 10.998 37.5643 11.096 37.5643 11.292V12.244C37.5643 12.44 37.4709 12.538 37.2843 12.538H34.3583C34.2463 12.538 34.1903 12.5893 34.1903 12.692V14.512C34.1903 14.6147 34.2463 14.666 34.3583 14.666H36.7523C36.9483 14.666 37.0463 14.764 37.0463 14.96V15.912C37.0463 16.108 36.9483 16.206 36.7523 16.206H34.3583C34.2463 16.206 34.1903 16.2573 34.1903 16.36V18.306C34.1903 18.4087 34.2463 18.46 34.3583 18.46H37.2843C37.4709 18.46 37.5643 18.558 37.5643 18.754V19.706C37.5643 19.902 37.4709 20 37.2843 20ZM40.8895 20H39.5455C39.3775 20 39.3215 19.902 39.3775 19.706L41.5895 11.292C41.6548 11.096 41.7948 10.998 42.0095 10.998H43.8715C44.1048 10.998 44.2448 11.096 44.2915 11.292L46.5035 19.706C46.5595 19.902 46.5035 20 46.3355 20H44.9915C44.8888 20 44.8188 19.9813 44.7815 19.944C44.7442 19.8973 44.7162 19.818 44.6975 19.706L44.3055 18.166H41.5755L41.1835 19.706C41.1648 19.818 41.1322 19.8973 41.0855 19.944C41.0482 19.9813 40.9828 20 40.8895 20ZM42.9195 12.692L41.9115 16.738H43.9835L42.9755 12.692H42.9195ZM50.0685 20H48.8785C48.6825 20 48.5845 19.902 48.5845 19.706V11.292C48.5845 11.096 48.6825 10.998 48.8785 10.998H52.2105C52.9385 10.998 53.5078 11.1987 53.9185 11.6C54.3291 12.0013 54.5345 12.566 54.5345 13.294V14.386C54.5345 15.4407 54.1191 16.1407 53.2885 16.486V16.542L54.7865 19.664C54.8705 19.888 54.7911 20 54.5485 20H53.4145C53.2465 20 53.1251 19.9813 53.0505 19.944C52.9758 19.9067 52.9151 19.8273 52.8685 19.706L51.4685 16.682H50.5305C50.4185 16.682 50.3625 16.7333 50.3625 16.836V19.706C50.3625 19.902 50.2645 20 50.0685 20ZM50.5165 15.254H51.8885C52.1871 15.254 52.4065 15.1933 52.5465 15.072C52.6865 14.9413 52.7565 14.736 52.7565 14.456V13.364C52.7565 13.0747 52.6865 12.8647 52.5465 12.734C52.4065 12.6033 52.1871 12.538 51.8885 12.538H50.5165C50.4138 12.538 50.3625 12.5893 50.3625 12.692V15.1C50.3625 15.2027 50.4138 15.254 50.5165 15.254ZM61.9349 20H60.5909C60.4229 20 60.3669 19.902 60.4229 19.706L62.6349 11.292C62.7002 11.096 62.8402 10.998 63.0549 10.998H64.9169C65.1502 10.998 65.2902 11.096 65.3369 11.292L67.5489 19.706C67.6049 19.902 67.5489 20 67.3809 20H66.0369C65.9342 20 65.8642 19.9813 65.8269 19.944C65.7895 19.8973 65.7615 19.818 65.7429 19.706L65.3509 18.166H62.6209L62.2289 19.706C62.2102 19.818 62.1775 19.8973 62.1309 19.944C62.0935 19.9813 62.0282 20 61.9349 20ZM63.9649 12.692L62.9569 16.738H65.0289L64.0209 12.692H63.9649ZM74.5298 20H69.9238C69.7278 20 69.6298 19.902 69.6298 19.706V11.292C69.6298 11.096 69.7278 10.998 69.9238 10.998H71.1138C71.3098 10.998 71.4078 11.096 71.4078 11.292V18.292C71.4078 18.3947 71.4638 18.446 71.5758 18.446H74.5298C74.7165 18.446 74.8098 18.5487 74.8098 18.754V19.706C74.8098 19.902 74.7165 20 74.5298 20ZM81.6589 20H77.0529C76.8569 20 76.7589 19.902 76.7589 19.706V11.292C76.7589 11.096 76.8569 10.998 77.0529 10.998H78.2429C78.4389 10.998 78.5369 11.096 78.5369 11.292V18.292C78.5369 18.3947 78.5929 18.446 78.7049 18.446H81.6589C81.8456 18.446 81.9389 18.5487 81.9389 18.754V19.706C81.9389 19.902 81.8456 20 81.6589 20Z" fill="#FEE1DB"/>
<g style="mix-blend-mode:luminosity">
<path d="M0 0H14L10 4H0V0Z" fill="#124835"/>
</g>
</svg>
