<svg width="300" height="40" viewBox="0 0 300 40" fill="none" xmlns="http://www.w3.org/2000/svg">
<path d="M0 6H34L40 0H300V30L295 35L290 40H0V6Z" fill="#E62E05"/>
<path d="M11.606 30H10.08C9.34267 30 8.77333 29.804 8.372 29.412C7.97067 29.02 7.77 28.4553 7.77 27.718V23.28C7.77 22.5427 7.97067 21.978 8.372 21.586C8.77333 21.194 9.34267 20.998 10.08 20.998H11.606C12.334 20.998 12.8987 21.1987 13.3 21.6C13.7107 21.992 13.916 22.552 13.916 23.28V23.938C13.916 24.1433 13.8133 24.246 13.608 24.246H12.432C12.236 24.246 12.138 24.1433 12.138 23.938V23.364C12.138 23.0653 12.0727 22.8553 11.942 22.734C11.8207 22.6033 11.6107 22.538 11.312 22.538H10.36C10.0707 22.538 9.86067 22.6033 9.73 22.734C9.60867 22.8553 9.548 23.0653 9.548 23.364V27.634C9.548 27.9327 9.60867 28.1473 9.73 28.278C9.86067 28.3993 10.0707 28.46 10.36 28.46H11.312C11.6107 28.46 11.8207 28.3993 11.942 28.278C12.0727 28.1473 12.138 27.9327 12.138 27.634V27.06C12.138 26.8547 12.236 26.752 12.432 26.752H13.608C13.8133 26.752 13.916 26.8547 13.916 27.06V27.718C13.916 28.446 13.7107 29.0107 13.3 29.412C12.8987 29.804 12.334 30 11.606 30ZM18.7332 28.46H19.7272C20.0259 28.46 20.2359 28.3993 20.3572 28.278C20.4879 28.1473 20.5532 27.9327 20.5532 27.634V23.364C20.5532 23.0653 20.4879 22.8553 20.3572 22.734C20.2359 22.6033 20.0259 22.538 19.7272 22.538H18.7332C18.4345 22.538 18.2245 22.6033 18.1032 22.734C17.9819 22.8553 17.9212 23.0653 17.9212 23.364V27.634C17.9212 27.9327 17.9819 28.1473 18.1032 28.278C18.2245 28.3993 18.4345 28.46 18.7332 28.46ZM20.0212 30H18.4532C17.7159 30 17.1465 29.804 16.7452 29.412C16.3439 29.02 16.1432 28.4553 16.1432 27.718V23.28C16.1432 22.5427 16.3439 21.978 16.7452 21.586C17.1465 21.194 17.7159 20.998 18.4532 20.998H20.0212C20.7585 20.998 21.3279 21.194 21.7292 21.586C22.1305 21.978 22.3312 22.5427 22.3312 23.28V27.718C22.3312 28.4553 22.1305 29.02 21.7292 29.412C21.3279 29.804 20.7585 30 20.0212 30ZM26.3038 30H25.1418C24.9458 30 24.8478 29.902 24.8478 29.706V21.292C24.8478 21.096 24.9458 20.998 25.1418 20.998H26.1918C26.3878 20.998 26.5185 21.0633 26.5838 21.194L29.4118 26.5H29.4678V21.292C29.4678 21.096 29.5658 20.998 29.7618 20.998H30.9238C31.1198 20.998 31.2178 21.096 31.2178 21.292V29.706C31.2178 29.902 31.1198 30 30.9238 30H29.9018C29.6965 30 29.5471 29.9067 29.4538 29.72L26.6538 24.512H26.5978V29.706C26.5978 29.902 26.4998 30 26.3038 30ZM35.3333 30H34.1713C33.9753 30 33.8773 29.902 33.8773 29.706V21.292C33.8773 21.096 33.9753 20.998 34.1713 20.998H35.2213C35.4173 20.998 35.5479 21.0633 35.6133 21.194L38.4413 26.5H38.4973V21.292C38.4973 21.096 38.5953 20.998 38.7913 20.998H39.9533C40.1493 20.998 40.2473 21.096 40.2473 21.292V29.706C40.2473 29.902 40.1493 30 39.9533 30H38.9313C38.7259 30 38.5766 29.9067 38.4833 29.72L35.6833 24.512H35.6273V29.706C35.6273 29.902 35.5293 30 35.3333 30ZM47.7787 30H43.2007C43.0047 30 42.9067 29.902 42.9067 29.706V21.292C42.9067 21.096 43.0047 20.998 43.2007 20.998H47.7787C47.9654 20.998 48.0587 21.096 48.0587 21.292V22.244C48.0587 22.44 47.9654 22.538 47.7787 22.538H44.8527C44.7407 22.538 44.6847 22.5893 44.6847 22.692V24.512C44.6847 24.6147 44.7407 24.666 44.8527 24.666H47.2467C47.4427 24.666 47.5407 24.764 47.5407 24.96V25.912C47.5407 26.108 47.4427 26.206 47.2467 26.206H44.8527C44.7407 26.206 44.6847 26.2573 44.6847 26.36V28.306C44.6847 28.4087 44.7407 28.46 44.8527 28.46H47.7787C47.9654 28.46 48.0587 28.558 48.0587 28.754V29.706C48.0587 29.902 47.9654 30 47.7787 30ZM54.1419 30H52.6159C51.8786 30 51.3093 29.804 50.9079 29.412C50.5066 29.02 50.3059 28.4553 50.3059 27.718V23.28C50.3059 22.5427 50.5066 21.978 50.9079 21.586C51.3093 21.194 51.8786 20.998 52.6159 20.998H54.1419C54.8699 20.998 55.4346 21.1987 55.8359 21.6C56.2466 21.992 56.4519 22.552 56.4519 23.28V23.938C56.4519 24.1433 56.3493 24.246 56.1439 24.246H54.9679C54.7719 24.246 54.6739 24.1433 54.6739 23.938V23.364C54.6739 23.0653 54.6086 22.8553 54.4779 22.734C54.3566 22.6033 54.1466 22.538 53.8479 22.538H52.8959C52.6066 22.538 52.3966 22.6033 52.2659 22.734C52.1446 22.8553 52.0839 23.0653 52.0839 23.364V27.634C52.0839 27.9327 52.1446 28.1473 52.2659 28.278C52.3966 28.3993 52.6066 28.46 52.8959 28.46H53.8479C54.1466 28.46 54.3566 28.3993 54.4779 28.278C54.6086 28.1473 54.6739 27.9327 54.6739 27.634V27.06C54.6739 26.8547 54.7719 26.752 54.9679 26.752H56.1439C56.3493 26.752 56.4519 26.8547 56.4519 27.06V27.718C56.4519 28.446 56.2466 29.0107 55.8359 29.412C55.4346 29.804 54.8699 30 54.1419 30ZM61.6051 30H60.4291C60.2238 30 60.1211 29.902 60.1211 29.706V22.692C60.1211 22.5893 60.0698 22.538 59.9671 22.538H58.3711C58.1751 22.538 58.0771 22.44 58.0771 22.244V21.292C58.0771 21.096 58.1751 20.998 58.3711 20.998H63.6631C63.8591 20.998 63.9571 21.096 63.9571 21.292V22.244C63.9571 22.44 63.8591 22.538 63.6631 22.538H62.0671C61.9551 22.538 61.8991 22.5893 61.8991 22.692V29.706C61.8991 29.902 61.8011 30 61.6051 30ZM72.8903 30H70.9303C70.725 30 70.6083 29.902 70.5803 29.706L69.0823 21.292C69.0543 21.096 69.1523 20.998 69.3763 20.998H70.8323C71.047 20.998 71.159 21.096 71.1683 21.292L71.9803 28.194H72.0783L73.4223 21.25C73.4503 21.082 73.5483 20.998 73.7163 20.998H75.2843C75.4617 20.998 75.5643 21.0773 75.5923 21.236L76.9643 28.194H77.0763L77.8743 21.306C77.8837 21.1007 77.9957 20.998 78.2103 20.998H79.6663C79.8903 20.998 79.9883 21.1007 79.9603 21.306L78.4483 29.706C78.4203 29.902 78.313 30 78.1263 30H76.1523C75.9563 30 75.8443 29.902 75.8163 29.706L74.5563 23.14H74.5003L73.2263 29.706C73.189 29.902 73.077 30 72.8903 30ZM82.8533 30H81.5093C81.3413 30 81.2853 29.902 81.3413 29.706L83.5533 21.292C83.6186 21.096 83.7586 20.998 83.9733 20.998H85.8353C86.0686 20.998 86.2086 21.096 86.2553 21.292L88.4673 29.706C88.5233 29.902 88.4673 30 88.2993 30H86.9553C86.8526 30 86.7826 29.9813 86.7453 29.944C86.708 29.8973 86.68 29.818 86.6613 29.706L86.2693 28.166H83.5393L83.1473 29.706C83.1286 29.818 83.096 29.8973 83.0493 29.944C83.012 29.9813 82.9466 30 82.8533 30ZM84.8833 22.692L83.8753 26.738H85.9473L84.9393 22.692H84.8833ZM95.4483 30H90.8423C90.6463 30 90.5483 29.902 90.5483 29.706V21.292C90.5483 21.096 90.6463 20.998 90.8423 20.998H92.0323C92.2283 20.998 92.3263 21.096 92.3263 21.292V28.292C92.3263 28.3947 92.3823 28.446 92.4943 28.446H95.4483C95.6349 28.446 95.7283 28.5487 95.7283 28.754V29.706C95.7283 29.902 95.6349 30 95.4483 30ZM102.577 30H97.9713C97.7753 30 97.6773 29.902 97.6773 29.706V21.292C97.6773 21.096 97.7753 20.998 97.9713 20.998H99.1613C99.3573 20.998 99.4553 21.096 99.4553 21.292V28.292C99.4553 28.3947 99.5113 28.446 99.6233 28.446H102.577C102.764 28.446 102.857 28.5487 102.857 28.754V29.706C102.857 29.902 102.764 30 102.577 30ZM109.678 30H105.1C104.904 30 104.806 29.902 104.806 29.706V21.292C104.806 21.096 104.904 20.998 105.1 20.998H109.678C109.865 20.998 109.958 21.096 109.958 21.292V22.244C109.958 22.44 109.865 22.538 109.678 22.538H106.752C106.64 22.538 106.584 22.5893 106.584 22.692V24.512C106.584 24.6147 106.64 24.666 106.752 24.666H109.146C109.342 24.666 109.44 24.764 109.44 24.96V25.912C109.44 26.108 109.342 26.206 109.146 26.206H106.752C106.64 26.206 106.584 26.2573 106.584 26.36V28.306C106.584 28.4087 106.64 28.46 106.752 28.46H109.678C109.865 28.46 109.958 28.558 109.958 28.754V29.706C109.958 29.902 109.865 30 109.678 30ZM115.132 30H113.956C113.75 30 113.648 29.902 113.648 29.706V22.692C113.648 22.5893 113.596 22.538 113.494 22.538H111.898C111.702 22.538 111.604 22.44 111.604 22.244V21.292C111.604 21.096 111.702 20.998 111.898 20.998H117.19C117.386 20.998 117.484 21.096 117.484 21.292V22.244C117.484 22.44 117.386 22.538 117.19 22.538H115.594C115.482 22.538 115.426 22.5893 115.426 22.692V29.706C115.426 29.902 115.328 30 115.132 30Z" fill="#FEE1DB"/>
<g style="mix-blend-mode:luminosity">
<path d="M0 0H37L33 4H0V0Z" fill="#124835"/>
</g>
<path d="M289.282 25.2773C289.282 25.5117 289.186 25.7266 288.994 25.9219L285.298 29.5352C285.223 29.6068 285.142 29.6621 285.054 29.7012C284.963 29.737 284.865 29.7549 284.761 29.7549C284.614 29.7549 284.482 29.7207 284.365 29.6523C284.245 29.5807 284.15 29.4863 284.082 29.3691C284.01 29.252 283.975 29.1217 283.975 28.9785C283.975 28.7604 284.058 28.5684 284.224 28.4023L287.646 25.0771L287.646 25.4727L284.224 22.1572C284.058 21.9912 283.975 21.8008 283.975 21.5859C283.975 21.4427 284.01 21.3125 284.082 21.1953C284.15 21.0781 284.245 20.9854 284.365 20.917C284.482 20.8454 284.614 20.8096 284.761 20.8096C284.972 20.8096 285.151 20.8828 285.298 21.0293L288.994 24.6377C289.092 24.7354 289.163 24.8363 289.209 24.9404C289.255 25.0446 289.279 25.1569 289.282 25.2773Z" fill="#FEE1DB"/>
</svg>
