<svg width="216" height="40" viewBox="0 0 216 40" fill="none" xmlns="http://www.w3.org/2000/svg">
<path d="M0 6H34L40 0H216V30L211 35L206 40H0V6Z" fill="#E62E05"/>
<path d="M13.888 20.998H15.96C16.156 20.998 16.254 21.096 16.254 21.292V29.706C16.254 29.902 16.156 30 15.96 30H14.812C14.616 30 14.518 29.902 14.518 29.706V23.07H14.462L13.034 27.76C12.978 27.9467 12.8613 28.04 12.684 28.04H11.508C11.3307 28.04 11.214 27.9467 11.158 27.76L9.702 23.056H9.646V29.706C9.646 29.818 9.62733 29.8973 9.59 29.944C9.55267 29.9813 9.47333 30 9.352 30H8.204C8.008 30 7.91 29.902 7.91 29.706V21.292C7.91 21.096 8.008 20.998 8.204 20.998H10.29C10.4207 20.998 10.5093 21.0633 10.556 21.194L12.04 26.136H12.124L13.622 21.194C13.65 21.0633 13.7387 20.998 13.888 20.998ZM19.8462 30H18.5022C18.3342 30 18.2782 29.902 18.3342 29.706L20.5462 21.292C20.6115 21.096 20.7515 20.998 20.9662 20.998H22.8282C23.0615 20.998 23.2015 21.096 23.2482 21.292L25.4602 29.706C25.5162 29.902 25.4602 30 25.2922 30H23.9482C23.8455 30 23.7755 29.9813 23.7382 29.944C23.7009 29.8973 23.6729 29.818 23.6542 29.706L23.2622 28.166H20.5322L20.1402 29.706C20.1215 29.818 20.0889 29.8973 20.0422 29.944C20.0049 29.9813 19.9395 30 19.8462 30ZM21.8762 22.692L20.8682 26.738H22.9402L21.9322 22.692H21.8762ZM28.9972 30H27.8352C27.6392 30 27.5412 29.902 27.5412 29.706V21.292C27.5412 21.096 27.6392 20.998 27.8352 20.998H28.8852C29.0812 20.998 29.2118 21.0633 29.2772 21.194L32.1052 26.5H32.1612V21.292C32.1612 21.096 32.2592 20.998 32.4552 20.998H33.6172C33.8132 20.998 33.9112 21.096 33.9112 21.292V29.706C33.9112 29.902 33.8132 30 33.6172 30H32.5952C32.3898 30 32.2405 29.9067 32.1472 29.72L29.3472 24.512H29.2912V29.706C29.2912 29.902 29.1932 30 28.9972 30ZM37.5086 30H36.1646C35.9966 30 35.9406 29.902 35.9966 29.706L38.2086 21.292C38.274 21.096 38.414 20.998 38.6286 20.998H40.4906C40.724 20.998 40.864 21.096 40.9106 21.292L43.1226 29.706C43.1786 29.902 43.1226 30 42.9546 30H41.6106C41.508 30 41.438 29.9813 41.4006 29.944C41.3633 29.8973 41.3353 29.818 41.3166 29.706L40.9246 28.166H38.1946L37.8026 29.706C37.784 29.818 37.7513 29.8973 37.7046 29.944C37.6673 29.9813 37.602 30 37.5086 30ZM39.5386 22.692L38.5306 26.738H40.6026L39.5946 22.692H39.5386ZM48.8576 30H47.3736C46.6363 30 46.0669 29.804 45.6656 29.412C45.2643 29.02 45.0636 28.4553 45.0636 27.718V23.28C45.0636 22.5427 45.2643 21.978 45.6656 21.586C46.0669 21.194 46.6363 20.998 47.3736 20.998H48.8576C49.5856 20.998 50.1503 21.1987 50.5516 21.6C50.9529 21.992 51.1536 22.552 51.1536 23.28V23.7C51.1536 23.9053 51.0556 24.008 50.8596 24.008H49.6696C49.4736 24.008 49.3756 23.9053 49.3756 23.7V23.364C49.3756 23.0653 49.3149 22.8553 49.1936 22.734C49.0723 22.6033 48.8623 22.538 48.5636 22.538H47.6536C47.3643 22.538 47.1543 22.6033 47.0236 22.734C46.9023 22.8553 46.8416 23.0653 46.8416 23.364V27.634C46.8416 27.9327 46.9023 28.1473 47.0236 28.278C47.1543 28.3993 47.3643 28.46 47.6536 28.46H48.5636C48.8623 28.46 49.0723 28.3993 49.1936 28.278C49.3149 28.1473 49.3756 27.9327 49.3756 27.634V26.752C49.3756 26.6493 49.3243 26.598 49.2216 26.598H48.3816C48.1856 26.598 48.0876 26.5 48.0876 26.304V25.352C48.0876 25.156 48.1856 25.058 48.3816 25.058H50.8316C51.0463 25.058 51.1536 25.1653 51.1536 25.38V27.718C51.1536 28.446 50.9529 29.0107 50.5516 29.412C50.1503 29.804 49.5856 30 48.8576 30ZM58.5445 30H53.9665C53.7705 30 53.6725 29.902 53.6725 29.706V21.292C53.6725 21.096 53.7705 20.998 53.9665 20.998H58.5445C58.7312 20.998 58.8245 21.096 58.8245 21.292V22.244C58.8245 22.44 58.7312 22.538 58.5445 22.538H55.6185C55.5065 22.538 55.4505 22.5893 55.4505 22.692V24.512C55.4505 24.6147 55.5065 24.666 55.6185 24.666H58.0125C58.2085 24.666 58.3065 24.764 58.3065 24.96V25.912C58.3065 26.108 58.2085 26.206 58.0125 26.206H55.6185C55.5065 26.206 55.4505 26.2573 55.4505 26.36V28.306C55.4505 28.4087 55.5065 28.46 55.6185 28.46H58.5445C58.7312 28.46 58.8245 28.558 58.8245 28.754V29.706C58.8245 29.902 58.7312 30 58.5445 30Z" fill="#FEE1DB"/>
<g style="mix-blend-mode:luminosity">
<path d="M0 0H37L33 4H0V0Z" fill="#124835"/>
</g>
<path d="M205.282 25.2773C205.282 25.5117 205.186 25.7266 204.994 25.9219L201.298 29.5352C201.223 29.6068 201.142 29.6621 201.054 29.7012C200.963 29.737 200.865 29.7549 200.761 29.7549C200.614 29.7549 200.482 29.7207 200.365 29.6523C200.245 29.5807 200.15 29.4863 200.082 29.3691C200.01 29.252 199.975 29.1217 199.975 28.9785C199.975 28.7604 200.058 28.5684 200.224 28.4023L203.646 25.0771L203.646 25.4727L200.224 22.1572C200.058 21.9912 199.975 21.8008 199.975 21.5859C199.975 21.4427 200.01 21.3125 200.082 21.1953C200.15 21.0781 200.245 20.9854 200.365 20.917C200.482 20.8454 200.614 20.8096 200.761 20.8096C200.972 20.8096 201.151 20.8828 201.298 21.0293L204.994 24.6377C205.092 24.7354 205.163 24.8363 205.209 24.9404C205.255 25.0446 205.279 25.1569 205.282 25.2773Z" fill="#FEE1DB"/>
</svg>
