<svg width="300" height="40" viewBox="0 0 300 40" fill="none" xmlns="http://www.w3.org/2000/svg">
<path d="M0 6H34L40 0H300V30L295 35L290 40H0V6Z" fill="#E62E05"/>
<path d="M9.394 30H8.204C8.008 30 7.91 29.902 7.91 29.706V21.292C7.91 21.096 8.008 20.998 8.204 20.998H11.62C12.348 20.998 12.9127 21.1987 13.314 21.6C13.7153 21.992 13.916 22.552 13.916 23.28V24.624C13.916 25.352 13.7153 25.9167 13.314 26.318C12.9127 26.71 12.348 26.906 11.62 26.906H9.856C9.744 26.906 9.688 26.9573 9.688 27.06V29.706C9.688 29.902 9.59 30 9.394 30ZM9.842 25.352H11.326C11.6247 25.352 11.8347 25.2913 11.956 25.17C12.0773 25.0393 12.138 24.8293 12.138 24.54V23.364C12.138 23.0653 12.0773 22.8553 11.956 22.734C11.8347 22.6033 11.6247 22.538 11.326 22.538H9.842C9.73933 22.538 9.688 22.5893 9.688 22.692V25.198C9.688 25.3007 9.73933 25.352 9.842 25.352ZM17.1118 30H15.7678C15.5998 30 15.5438 29.902 15.5998 29.706L17.8118 21.292C17.8772 21.096 18.0172 20.998 18.2318 20.998H20.0938C20.3272 20.998 20.4672 21.096 20.5138 21.292L22.7258 29.706C22.7818 29.902 22.7258 30 22.5578 30H21.2138C21.1112 30 21.0412 29.9813 21.0038 29.944C20.9665 29.8973 20.9385 29.818 20.9198 29.706L20.5278 28.166H17.7978L17.4058 29.706C17.3872 29.818 17.3545 29.8973 17.3078 29.944C17.2705 29.9813 17.2052 30 17.1118 30ZM19.1418 22.692L18.1338 26.738H20.2058L19.1978 22.692H19.1418ZM26.2908 30H25.1008C24.9048 30 24.8068 29.902 24.8068 29.706V21.292C24.8068 21.096 24.9048 20.998 25.1008 20.998H28.4328C29.1608 20.998 29.7301 21.1987 30.1408 21.6C30.5515 22.0013 30.7568 22.566 30.7568 23.294V24.386C30.7568 25.4407 30.3415 26.1407 29.5108 26.486V26.542L31.0088 29.664C31.0928 29.888 31.0135 30 30.7708 30H29.6368C29.4688 30 29.3475 29.9813 29.2728 29.944C29.1981 29.9067 29.1375 29.8273 29.0908 29.706L27.6908 26.682H26.7528C26.6408 26.682 26.5848 26.7333 26.5848 26.836V29.706C26.5848 29.902 26.4868 30 26.2908 30ZM26.7388 25.254H28.1108C28.4095 25.254 28.6288 25.1933 28.7688 25.072C28.9088 24.9413 28.9788 24.736 28.9788 24.456V23.364C28.9788 23.0747 28.9088 22.8647 28.7688 22.734C28.6288 22.6033 28.4095 22.538 28.1108 22.538H26.7388C26.6361 22.538 26.5848 22.5893 26.5848 22.692V25.1C26.5848 25.2027 26.6361 25.254 26.7388 25.254ZM36.089 30H34.913C34.7077 30 34.605 29.902 34.605 29.706V22.692C34.605 22.5893 34.5537 22.538 34.451 22.538H32.855C32.659 22.538 32.561 22.44 32.561 22.244V21.292C32.561 21.096 32.659 20.998 32.855 20.998H38.147C38.343 20.998 38.441 21.096 38.441 21.292V22.244C38.441 22.44 38.343 22.538 38.147 22.538H36.551C36.439 22.538 36.383 22.5893 36.383 22.692V29.706C36.383 29.902 36.285 30 36.089 30ZM42.1981 21.292V29.706C42.1981 29.902 42.1001 30 41.9041 30H40.7141C40.5181 30 40.4201 29.902 40.4201 29.706V21.292C40.4201 21.096 40.5181 20.998 40.7141 20.998H41.9041C42.1001 20.998 42.1981 21.096 42.1981 21.292ZM48.6185 30H47.0925C46.3552 30 45.7858 29.804 45.3845 29.412C44.9832 29.02 44.7825 28.4553 44.7825 27.718V23.28C44.7825 22.5427 44.9832 21.978 45.3845 21.586C45.7858 21.194 46.3552 20.998 47.0925 20.998H48.6185C49.3465 20.998 49.9112 21.1987 50.3125 21.6C50.7232 21.992 50.9285 22.552 50.9285 23.28V23.938C50.9285 24.1433 50.8258 24.246 50.6205 24.246H49.4445C49.2485 24.246 49.1505 24.1433 49.1505 23.938V23.364C49.1505 23.0653 49.0852 22.8553 48.9545 22.734C48.8332 22.6033 48.6232 22.538 48.3245 22.538H47.3725C47.0832 22.538 46.8732 22.6033 46.7425 22.734C46.6212 22.8553 46.5605 23.0653 46.5605 23.364V27.634C46.5605 27.9327 46.6212 28.1473 46.7425 28.278C46.8732 28.3993 47.0832 28.46 47.3725 28.46H48.3245C48.6232 28.46 48.8332 28.3993 48.9545 28.278C49.0852 28.1473 49.1505 27.9327 49.1505 27.634V27.06C49.1505 26.8547 49.2485 26.752 49.4445 26.752H50.6205C50.8258 26.752 50.9285 26.8547 50.9285 27.06V27.718C50.9285 28.446 50.7232 29.0107 50.3125 29.412C49.9112 29.804 49.3465 30 48.6185 30ZM55.1437 21.292V29.706C55.1437 29.902 55.0457 30 54.8497 30H53.6597C53.4637 30 53.3657 29.902 53.3657 29.706V21.292C53.3657 21.096 53.4637 20.998 53.6597 20.998H54.8497C55.0457 20.998 55.1437 21.096 55.1437 21.292ZM59.3521 30H58.1621C57.9661 30 57.8681 29.902 57.8681 29.706V21.292C57.8681 21.096 57.9661 20.998 58.1621 20.998H61.5781C62.3061 20.998 62.8708 21.1987 63.2721 21.6C63.6735 21.992 63.8741 22.552 63.8741 23.28V24.624C63.8741 25.352 63.6735 25.9167 63.2721 26.318C62.8708 26.71 62.3061 26.906 61.5781 26.906H59.8141C59.7021 26.906 59.6461 26.9573 59.6461 27.06V29.706C59.6461 29.902 59.5481 30 59.3521 30ZM59.8001 25.352H61.2841C61.5828 25.352 61.7928 25.2913 61.9141 25.17C62.0355 25.0393 62.0961 24.8293 62.0961 24.54V23.364C62.0961 23.0653 62.0355 22.8553 61.9141 22.734C61.7928 22.6033 61.5828 22.538 61.2841 22.538H59.8001C59.6975 22.538 59.6461 22.5893 59.6461 22.692V25.198C59.6461 25.3007 59.6975 25.352 59.8001 25.352ZM67.07 30H65.726C65.558 30 65.502 29.902 65.558 29.706L67.77 21.292C67.8353 21.096 67.9753 20.998 68.19 20.998H70.052C70.2853 20.998 70.4253 21.096 70.472 21.292L72.684 29.706C72.74 29.902 72.684 30 72.516 30H71.172C71.0693 30 70.9993 29.9813 70.962 29.944C70.9246 29.8973 70.8966 29.818 70.878 29.706L70.486 28.166H67.756L67.364 29.706C67.3453 29.818 67.3126 29.8973 67.266 29.944C67.2286 29.9813 67.1633 30 67.07 30ZM69.1 22.692L68.092 26.738H70.164L69.156 22.692H69.1ZM77.5509 30H76.3749C76.1696 30 76.0669 29.902 76.0669 29.706V22.692C76.0669 22.5893 76.0156 22.538 75.9129 22.538H74.3169C74.1209 22.538 74.0229 22.44 74.0229 22.244V21.292C74.0229 21.096 74.1209 20.998 74.3169 20.998H79.6089C79.8049 20.998 79.9029 21.096 79.9029 21.292V22.244C79.9029 22.44 79.8049 22.538 79.6089 22.538H78.0129C77.9009 22.538 77.8449 22.5893 77.8449 22.692V29.706C77.8449 29.902 77.7469 30 77.5509 30ZM86.684 30H82.106C81.91 30 81.812 29.902 81.812 29.706V21.292C81.812 21.096 81.91 20.998 82.106 20.998H86.684C86.8706 20.998 86.964 21.096 86.964 21.292V22.244C86.964 22.44 86.8706 22.538 86.684 22.538H83.758C83.646 22.538 83.59 22.5893 83.59 22.692V24.512C83.59 24.6147 83.646 24.666 83.758 24.666H86.152C86.348 24.666 86.446 24.764 86.446 24.96V25.912C86.446 26.108 86.348 26.206 86.152 26.206H83.758C83.646 26.206 83.59 26.2573 83.59 26.36V28.306C83.59 28.4087 83.646 28.46 83.758 28.46H86.684C86.8706 28.46 86.964 28.558 86.964 28.754V29.706C86.964 29.902 86.8706 30 86.684 30Z" fill="#FEE1DB"/>
<g style="mix-blend-mode:luminosity">
<path d="M0 0H37L33 4H0V0Z" fill="#124835"/>
</g>
<path d="M289.282 25.2773C289.282 25.5117 289.186 25.7266 288.994 25.9219L285.298 29.5352C285.223 29.6068 285.142 29.6621 285.054 29.7012C284.963 29.737 284.865 29.7549 284.761 29.7549C284.614 29.7549 284.482 29.7207 284.365 29.6523C284.245 29.5807 284.15 29.4863 284.082 29.3691C284.01 29.252 283.975 29.1217 283.975 28.9785C283.975 28.7604 284.058 28.5684 284.224 28.4023L287.646 25.0771L287.646 25.4727L284.224 22.1572C284.058 21.9912 283.975 21.8008 283.975 21.5859C283.975 21.4427 284.01 21.3125 284.082 21.1953C284.15 21.0781 284.245 20.9854 284.365 20.917C284.482 20.8454 284.614 20.8096 284.761 20.8096C284.972 20.8096 285.151 20.8828 285.298 21.0293L288.994 24.6377C289.092 24.7354 289.163 24.8363 289.209 24.9404C289.255 25.0446 289.279 25.1569 289.282 25.2773Z" fill="#FEE1DB"/>
</svg>
