<svg width="216" height="40" viewBox="0 0 216 40" fill="none" xmlns="http://www.w3.org/2000/svg">
<path d="M0 6H34L40 0H216V30L211 35L206 40H0V6Z" fill="#E62E05"/>
<path d="M7.686 27.704V27.424C7.686 27.228 7.784 27.13 7.98 27.13H9.17C9.366 27.13 9.464 27.228 9.464 27.424V27.536C9.464 27.8907 9.534 28.1333 9.674 28.264C9.814 28.3947 10.0707 28.46 10.444 28.46H11.102C11.466 28.46 11.718 28.39 11.858 28.25C12.0073 28.11 12.082 27.8487 12.082 27.466V27.298C12.082 27.0273 11.97 26.822 11.746 26.682C11.5313 26.5327 11.2607 26.444 10.934 26.416C10.6073 26.388 10.2527 26.3367 9.87 26.262C9.49667 26.178 9.14667 26.0753 8.82 25.954C8.49333 25.8233 8.218 25.576 7.994 25.212C7.77933 24.8387 7.672 24.3627 7.672 23.784V23.294C7.672 22.566 7.87733 22.0013 8.288 21.6C8.69867 21.1987 9.268 20.998 9.996 20.998H11.396C12.1333 20.998 12.7073 21.1987 13.118 21.6C13.5287 22.0013 13.734 22.566 13.734 23.294V23.56C13.734 23.756 13.636 23.854 13.44 23.854H12.25C12.054 23.854 11.956 23.756 11.956 23.56V23.476C11.956 23.112 11.886 22.8647 11.746 22.734C11.606 22.6033 11.3493 22.538 10.976 22.538H10.43C10.0473 22.538 9.786 22.6127 9.646 22.762C9.51533 22.902 9.45 23.182 9.45 23.602V23.868C9.45 24.3067 9.83267 24.5587 10.598 24.624C11.3913 24.6893 12.096 24.848 12.712 25.1C13.0387 25.24 13.3093 25.492 13.524 25.856C13.748 26.2107 13.86 26.668 13.86 27.228V27.704C13.86 28.432 13.6547 28.9967 13.244 29.398C12.8333 29.7993 12.264 30 11.536 30H10.01C9.282 30 8.71267 29.7993 8.302 29.398C7.89133 28.9967 7.686 28.432 7.686 27.704ZM19.0829 30H17.9069C17.7015 30 17.5989 29.902 17.5989 29.706V22.692C17.5989 22.5893 17.5475 22.538 17.4449 22.538H15.8489C15.6529 22.538 15.5549 22.44 15.5549 22.244V21.292C15.5549 21.096 15.6529 20.998 15.8489 20.998H21.1409C21.3369 20.998 21.4349 21.096 21.4349 21.292V22.244C21.4349 22.44 21.3369 22.538 21.1409 22.538H19.5449C19.4329 22.538 19.3769 22.5893 19.3769 22.692V29.706C19.3769 29.902 19.2789 30 19.0829 30ZM24.2819 30H22.9379C22.7699 30 22.7139 29.902 22.7699 29.706L24.9819 21.292C25.0472 21.096 25.1872 20.998 25.4019 20.998H27.2639C27.4972 20.998 27.6372 21.096 27.6839 21.292L29.8959 29.706C29.9519 29.902 29.8959 30 29.7279 30H28.3839C28.2812 30 28.2112 29.9813 28.1739 29.944C28.1366 29.8973 28.1086 29.818 28.0899 29.706L27.6979 28.166H24.9679L24.5759 29.706C24.5572 29.818 24.5246 29.8973 24.4779 29.944C24.4406 29.9813 24.3752 30 24.2819 30ZM26.3119 22.692L25.3039 26.738H27.3759L26.3679 22.692H26.3119ZM33.4609 30H32.2709C32.0749 30 31.9769 29.902 31.9769 29.706V21.292C31.9769 21.096 32.0749 20.998 32.2709 20.998H35.6029C36.3309 20.998 36.9002 21.1987 37.3109 21.6C37.7215 22.0013 37.9269 22.566 37.9269 23.294V24.386C37.9269 25.4407 37.5115 26.1407 36.6809 26.486V26.542L38.1789 29.664C38.2629 29.888 38.1835 30 37.9409 30H36.8069C36.6389 30 36.5175 29.9813 36.4429 29.944C36.3682 29.9067 36.3075 29.8273 36.2609 29.706L34.8609 26.682H33.9229C33.8109 26.682 33.7549 26.7333 33.7549 26.836V29.706C33.7549 29.902 33.6569 30 33.4609 30ZM33.9089 25.254H35.2809C35.5795 25.254 35.7989 25.1933 35.9389 25.072C36.0789 24.9413 36.1489 24.736 36.1489 24.456V23.364C36.1489 23.0747 36.0789 22.8647 35.9389 22.734C35.7989 22.6033 35.5795 22.538 35.2809 22.538H33.9089C33.8062 22.538 33.7549 22.5893 33.7549 22.692V25.1C33.7549 25.2027 33.8062 25.254 33.9089 25.254ZM43.2591 30H42.0831C41.8778 30 41.7751 29.902 41.7751 29.706V22.692C41.7751 22.5893 41.7238 22.538 41.6211 22.538H40.0251C39.8291 22.538 39.7311 22.44 39.7311 22.244V21.292C39.7311 21.096 39.8291 20.998 40.0251 20.998H45.3171C45.5131 20.998 45.6111 21.096 45.6111 21.292V22.244C45.6111 22.44 45.5131 22.538 45.3171 22.538H43.7211C43.6091 22.538 43.5531 22.5893 43.5531 22.692V29.706C43.5531 29.902 43.4551 30 43.2591 30ZM56.0423 20.998H57.2183C57.4237 20.998 57.5263 21.0913 57.5263 21.278V27.718C57.5263 28.446 57.321 29.0107 56.9103 29.412C56.509 29.804 55.9443 30 55.2163 30H53.6763C52.939 30 52.3697 29.804 51.9683 29.412C51.567 29.02 51.3663 28.4553 51.3663 27.718V21.292C51.3663 21.096 51.4643 20.998 51.6603 20.998H52.8503C53.0463 20.998 53.1443 21.096 53.1443 21.292V27.634C53.1443 27.9327 53.205 28.1473 53.3263 28.278C53.457 28.3993 53.667 28.46 53.9563 28.46H54.9223C55.221 28.46 55.431 28.3993 55.5523 28.278C55.683 28.1473 55.7483 27.9327 55.7483 27.634V21.292C55.7483 21.096 55.8463 20.998 56.0423 20.998ZM61.5943 30H60.4043C60.2083 30 60.1103 29.902 60.1103 29.706V21.292C60.1103 21.096 60.2083 20.998 60.4043 20.998H63.8203C64.5483 20.998 65.113 21.1987 65.5143 21.6C65.9156 21.992 66.1163 22.552 66.1163 23.28V24.624C66.1163 25.352 65.9156 25.9167 65.5143 26.318C65.113 26.71 64.5483 26.906 63.8203 26.906H62.0563C61.9443 26.906 61.8883 26.9573 61.8883 27.06V29.706C61.8883 29.902 61.7903 30 61.5943 30ZM62.0423 25.352H63.5263C63.825 25.352 64.035 25.2913 64.1563 25.17C64.2776 25.0393 64.3383 24.8293 64.3383 24.54V23.364C64.3383 23.0653 64.2776 22.8553 64.1563 22.734C64.035 22.6033 63.825 22.538 63.5263 22.538H62.0423C61.9396 22.538 61.8883 22.5893 61.8883 22.692V25.198C61.8883 25.3007 61.9396 25.352 62.0423 25.352ZM72.0281 30H70.5441C69.8068 30 69.2375 29.804 68.8361 29.412C68.4348 29.02 68.2341 28.4553 68.2341 27.718V23.28C68.2341 22.5427 68.4348 21.978 68.8361 21.586C69.2375 21.194 69.8068 20.998 70.5441 20.998H72.0281C72.7561 20.998 73.3208 21.1987 73.7221 21.6C74.1235 21.992 74.3241 22.552 74.3241 23.28V23.7C74.3241 23.9053 74.2261 24.008 74.0301 24.008H72.8401C72.6441 24.008 72.5461 23.9053 72.5461 23.7V23.364C72.5461 23.0653 72.4855 22.8553 72.3641 22.734C72.2428 22.6033 72.0328 22.538 71.7341 22.538H70.8241C70.5348 22.538 70.3248 22.6033 70.1941 22.734C70.0728 22.8553 70.0121 23.0653 70.0121 23.364V27.634C70.0121 27.9327 70.0728 28.1473 70.1941 28.278C70.3248 28.3993 70.5348 28.46 70.8241 28.46H71.7341C72.0328 28.46 72.2428 28.3993 72.3641 28.278C72.4855 28.1473 72.5461 27.9327 72.5461 27.634V26.752C72.5461 26.6493 72.4948 26.598 72.3921 26.598H71.5521C71.3561 26.598 71.2581 26.5 71.2581 26.304V25.352C71.2581 25.156 71.3561 25.058 71.5521 25.058H74.0021C74.2168 25.058 74.3241 25.1653 74.3241 25.38V27.718C74.3241 28.446 74.1235 29.0107 73.7221 29.412C73.3208 29.804 72.7561 30 72.0281 30ZM78.327 30H77.137C76.941 30 76.843 29.902 76.843 29.706V21.292C76.843 21.096 76.941 20.998 77.137 20.998H80.469C81.197 20.998 81.7664 21.1987 82.177 21.6C82.5877 22.0013 82.793 22.566 82.793 23.294V24.386C82.793 25.4407 82.3777 26.1407 81.547 26.486V26.542L83.045 29.664C83.129 29.888 83.0497 30 82.807 30H81.673C81.505 30 81.3837 29.9813 81.309 29.944C81.2344 29.9067 81.1737 29.8273 81.127 29.706L79.727 26.682H78.789C78.677 26.682 78.621 26.7333 78.621 26.836V29.706C78.621 29.902 78.523 30 78.327 30ZM78.775 25.254H80.147C80.4457 25.254 80.665 25.1933 80.805 25.072C80.945 24.9413 81.015 24.736 81.015 24.456V23.364C81.015 23.0747 80.945 22.8647 80.805 22.734C80.665 22.6033 80.4457 22.538 80.147 22.538H78.775C78.6724 22.538 78.621 22.5893 78.621 22.692V25.1C78.621 25.2027 78.6724 25.254 78.775 25.254ZM86.2773 30H84.9333C84.7653 30 84.7093 29.902 84.7653 29.706L86.9773 21.292C87.0426 21.096 87.1826 20.998 87.3973 20.998H89.2593C89.4926 20.998 89.6326 21.096 89.6793 21.292L91.8913 29.706C91.9473 29.902 91.8913 30 91.7233 30H90.3793C90.2766 30 90.2066 29.9813 90.1693 29.944C90.132 29.8973 90.104 29.818 90.0853 29.706L89.6933 28.166H86.9633L86.5713 29.706C86.5526 29.818 86.52 29.8973 86.4733 29.944C86.436 29.9813 86.3706 30 86.2773 30ZM88.3073 22.692L87.2993 26.738H89.3713L88.3633 22.692H88.3073ZM95.9043 28.46H97.4303C97.7289 28.46 97.9389 28.3993 98.0603 28.278C98.1909 28.1473 98.2563 27.9327 98.2563 27.634V23.364C98.2563 23.0653 98.1909 22.8553 98.0603 22.734C97.9389 22.6033 97.7289 22.538 97.4303 22.538H95.9043C95.8016 22.538 95.7503 22.5893 95.7503 22.692V28.306C95.7503 28.4087 95.8016 28.46 95.9043 28.46ZM93.9723 29.706V21.292C93.9723 21.096 94.0703 20.998 94.2663 20.998H97.7243C98.4523 20.998 99.0169 21.1987 99.4183 21.6C99.8289 21.992 100.034 22.552 100.034 23.28V27.718C100.034 28.446 99.8289 29.0107 99.4183 29.412C99.0169 29.804 98.4523 30 97.7243 30H94.2663C94.0703 30 93.9723 29.902 93.9723 29.706ZM107.423 30H102.845C102.649 30 102.551 29.902 102.551 29.706V21.292C102.551 21.096 102.649 20.998 102.845 20.998H107.423C107.609 20.998 107.703 21.096 107.703 21.292V22.244C107.703 22.44 107.609 22.538 107.423 22.538H104.497C104.385 22.538 104.329 22.5893 104.329 22.692V24.512C104.329 24.6147 104.385 24.666 104.497 24.666H106.891C107.087 24.666 107.185 24.764 107.185 24.96V25.912C107.185 26.108 107.087 26.206 106.891 26.206H104.497C104.385 26.206 104.329 26.2573 104.329 26.36V28.306C104.329 28.4087 104.385 28.46 104.497 28.46H107.423C107.609 28.46 107.703 28.558 107.703 28.754V29.706C107.703 29.902 107.609 30 107.423 30Z" fill="#FEE1DB"/>
<g style="mix-blend-mode:luminosity">
<path d="M0 0H37L33 4H0V0Z" fill="#124835"/>
</g>
<path d="M205.282 25.2773C205.282 25.5117 205.186 25.7266 204.994 25.9219L201.298 29.5352C201.223 29.6068 201.142 29.6621 201.054 29.7012C200.963 29.737 200.865 29.7549 200.761 29.7549C200.614 29.7549 200.482 29.7207 200.365 29.6523C200.245 29.5807 200.15 29.4863 200.082 29.3691C200.01 29.252 199.975 29.1217 199.975 28.9785C199.975 28.7604 200.058 28.5684 200.224 28.4023L203.646 25.0771L203.646 25.4727L200.224 22.1572C200.058 21.9912 199.975 21.8008 199.975 21.5859C199.975 21.4427 200.01 21.3125 200.082 21.1953C200.15 21.0781 200.245 20.9854 200.365 20.917C200.482 20.8454 200.614 20.8096 200.761 20.8096C200.972 20.8096 201.151 20.8828 201.298 21.0293L204.994 24.6377C205.092 24.7354 205.163 24.8363 205.209 24.9404C205.255 25.0446 205.279 25.1569 205.282 25.2773Z" fill="#FEE1DB"/>
</svg>
