<svg width="270" height="40" viewBox="0 0 270 40" fill="none" xmlns="http://www.w3.org/2000/svg">
<path d="M0 6H34L40 0H270V30L265 35L260 40H0V6Z" fill="#E62E05"/>
<path d="M0 6H34L40 0H270V30L265 35L260 40H0V6Z" fill="#E62E05"/>
<path d="M12.516 20.998H13.692C13.8973 20.998 14 21.0913 14 21.278V27.718C14 28.446 13.7947 29.0107 13.384 29.412C12.9827 29.804 12.418 30 11.69 30H10.15C9.41267 30 8.84333 29.804 8.442 29.412C8.04067 29.02 7.84 28.4553 7.84 27.718V21.292C7.84 21.096 7.938 20.998 8.134 20.998H9.324C9.52 20.998 9.618 21.096 9.618 21.292V27.634C9.618 27.9327 9.67867 28.1473 9.8 28.278C9.93067 28.3993 10.1407 28.46 10.43 28.46H11.396C11.6947 28.46 11.9047 28.3993 12.026 28.278C12.1567 28.1473 12.222 27.9327 12.222 27.634V21.292C12.222 21.096 12.32 20.998 12.516 20.998ZM18.068 30H16.878C16.682 30 16.584 29.902 16.584 29.706V21.292C16.584 21.096 16.682 20.998 16.878 20.998H20.294C21.022 20.998 21.5867 21.1987 21.988 21.6C22.3893 21.992 22.59 22.552 22.59 23.28V24.624C22.59 25.352 22.3893 25.9167 21.988 26.318C21.5867 26.71 21.022 26.906 20.294 26.906H18.53C18.418 26.906 18.362 26.9573 18.362 27.06V29.706C18.362 29.902 18.264 30 18.068 30ZM18.516 25.352H20C20.2987 25.352 20.5087 25.2913 20.63 25.17C20.7513 25.0393 20.812 24.8293 20.812 24.54V23.364C20.812 23.0653 20.7513 22.8553 20.63 22.734C20.5087 22.6033 20.2987 22.538 20 22.538H18.516C18.4133 22.538 18.362 22.5893 18.362 22.692V25.198C18.362 25.3007 18.4133 25.352 18.516 25.352ZM28.5018 30H27.0178C26.2805 30 25.7111 29.804 25.3098 29.412C24.9085 29.02 24.7078 28.4553 24.7078 27.718V23.28C24.7078 22.5427 24.9085 21.978 25.3098 21.586C25.7111 21.194 26.2805 20.998 27.0178 20.998H28.5018C29.2298 20.998 29.7945 21.1987 30.1958 21.6C30.5971 21.992 30.7978 22.552 30.7978 23.28V23.7C30.7978 23.9053 30.6998 24.008 30.5038 24.008H29.3138C29.1178 24.008 29.0198 23.9053 29.0198 23.7V23.364C29.0198 23.0653 28.9591 22.8553 28.8378 22.734C28.7165 22.6033 28.5065 22.538 28.2078 22.538H27.2978C27.0085 22.538 26.7985 22.6033 26.6678 22.734C26.5465 22.8553 26.4858 23.0653 26.4858 23.364V27.634C26.4858 27.9327 26.5465 28.1473 26.6678 28.278C26.7985 28.3993 27.0085 28.46 27.2978 28.46H28.2078C28.5065 28.46 28.7165 28.3993 28.8378 28.278C28.9591 28.1473 29.0198 27.9327 29.0198 27.634V26.752C29.0198 26.6493 28.9685 26.598 28.8658 26.598H28.0258C27.8298 26.598 27.7318 26.5 27.7318 26.304V25.352C27.7318 25.156 27.8298 25.058 28.0258 25.058H30.4758C30.6905 25.058 30.7978 25.1653 30.7978 25.38V27.718C30.7978 28.446 30.5971 29.0107 30.1958 29.412C29.7945 29.804 29.2298 30 28.5018 30ZM34.8007 30H33.6107C33.4147 30 33.3167 29.902 33.3167 29.706V21.292C33.3167 21.096 33.4147 20.998 33.6107 20.998H36.9427C37.6707 20.998 38.2401 21.1987 38.6507 21.6C39.0614 22.0013 39.2667 22.566 39.2667 23.294V24.386C39.2667 25.4407 38.8514 26.1407 38.0207 26.486V26.542L39.5187 29.664C39.6027 29.888 39.5234 30 39.2807 30H38.1467C37.9787 30 37.8574 29.9813 37.7827 29.944C37.7081 29.9067 37.6474 29.8273 37.6007 29.706L36.2007 26.682H35.2627C35.1507 26.682 35.0947 26.7333 35.0947 26.836V29.706C35.0947 29.902 34.9967 30 34.8007 30ZM35.2487 25.254H36.6207C36.9194 25.254 37.1387 25.1933 37.2787 25.072C37.4187 24.9413 37.4887 24.736 37.4887 24.456V23.364C37.4887 23.0747 37.4187 22.8647 37.2787 22.734C37.1387 22.6033 36.9194 22.538 36.6207 22.538H35.2487C35.1461 22.538 35.0947 22.5893 35.0947 22.692V25.1C35.0947 25.2027 35.1461 25.254 35.2487 25.254ZM42.751 30H41.407C41.239 30 41.183 29.902 41.239 29.706L43.451 21.292C43.5163 21.096 43.6563 20.998 43.871 20.998H45.733C45.9663 20.998 46.1063 21.096 46.153 21.292L48.365 29.706C48.421 29.902 48.365 30 48.197 30H46.853C46.7503 30 46.6803 29.9813 46.643 29.944C46.6056 29.8973 46.5776 29.818 46.559 29.706L46.167 28.166H43.437L43.045 29.706C43.0263 29.818 42.9936 29.8973 42.947 29.944C42.9096 29.9813 42.8443 30 42.751 30ZM44.781 22.692L43.773 26.738H45.845L44.837 22.692H44.781ZM52.3779 28.46H53.9039C54.2026 28.46 54.4126 28.3993 54.5339 28.278C54.6646 28.1473 54.7299 27.9327 54.7299 27.634V23.364C54.7299 23.0653 54.6646 22.8553 54.5339 22.734C54.4126 22.6033 54.2026 22.538 53.9039 22.538H52.3779C52.2753 22.538 52.2239 22.5893 52.2239 22.692V28.306C52.2239 28.4087 52.2753 28.46 52.3779 28.46ZM50.4459 29.706V21.292C50.4459 21.096 50.5439 20.998 50.7399 20.998H54.1979C54.9259 20.998 55.4906 21.1987 55.8919 21.6C56.3026 21.992 56.5079 22.552 56.5079 23.28V27.718C56.5079 28.446 56.3026 29.0107 55.8919 29.412C55.4906 29.804 54.9259 30 54.1979 30H50.7399C50.5439 30 50.4459 29.902 50.4459 29.706ZM63.8962 30H59.3182C59.1222 30 59.0242 29.902 59.0242 29.706V21.292C59.0242 21.096 59.1222 20.998 59.3182 20.998H63.8962C64.0829 20.998 64.1762 21.096 64.1762 21.292V22.244C64.1762 22.44 64.0829 22.538 63.8962 22.538H60.9702C60.8582 22.538 60.8022 22.5893 60.8022 22.692V24.512C60.8022 24.6147 60.8582 24.666 60.9702 24.666H63.3642C63.5602 24.666 63.6582 24.764 63.6582 24.96V25.912C63.6582 26.108 63.5602 26.206 63.3642 26.206H60.9702C60.8582 26.206 60.8022 26.2573 60.8022 26.36V28.306C60.8022 28.4087 60.8582 28.46 60.9702 28.46H63.8962C64.0829 28.46 64.1762 28.558 64.1762 28.754V29.706C64.1762 29.902 64.0829 30 63.8962 30ZM71.4176 30H70.0736C69.9056 30 69.8496 29.902 69.9056 29.706L72.1176 21.292C72.1829 21.096 72.3229 20.998 72.5376 20.998H74.3996C74.6329 20.998 74.7729 21.096 74.8196 21.292L77.0316 29.706C77.0876 29.902 77.0316 30 76.8636 30H75.5196C75.4169 30 75.3469 29.9813 75.3096 29.944C75.2723 29.8973 75.2443 29.818 75.2256 29.706L74.8336 28.166H72.1036L71.7116 29.706C71.6929 29.818 71.6603 29.8973 71.6136 29.944C71.5763 29.9813 71.5109 30 71.4176 30ZM73.4476 22.692L72.4396 26.738H74.5116L73.5036 22.692H73.4476ZM80.5686 30H79.4066C79.2106 30 79.1126 29.902 79.1126 29.706V21.292C79.1126 21.096 79.2106 20.998 79.4066 20.998H80.4566C80.6526 20.998 80.7832 21.0633 80.8486 21.194L83.6766 26.5H83.7326V21.292C83.7326 21.096 83.8306 20.998 84.0266 20.998H85.1886C85.3846 20.998 85.4826 21.096 85.4826 21.292V29.706C85.4826 29.902 85.3846 30 85.1886 30H84.1666C83.9612 30 83.8119 29.9067 83.7186 29.72L80.9186 24.512H80.8626V29.706C80.8626 29.902 80.7646 30 80.5686 30ZM90.592 28.46H91.586C91.8847 28.46 92.0947 28.3993 92.216 28.278C92.3467 28.1473 92.412 27.9327 92.412 27.634V23.364C92.412 23.0653 92.3467 22.8553 92.216 22.734C92.0947 22.6033 91.8847 22.538 91.586 22.538H90.592C90.2934 22.538 90.0834 22.6033 89.962 22.734C89.8407 22.8553 89.78 23.0653 89.78 23.364V27.634C89.78 27.9327 89.8407 28.1473 89.962 28.278C90.0834 28.3993 90.2934 28.46 90.592 28.46ZM91.88 30H90.312C89.5747 30 89.0054 29.804 88.604 29.412C88.2027 29.02 88.002 28.4553 88.002 27.718V23.28C88.002 22.5427 88.2027 21.978 88.604 21.586C89.0054 21.194 89.5747 20.998 90.312 20.998H91.88C92.6174 20.998 93.1867 21.194 93.588 21.586C93.9894 21.978 94.19 22.5427 94.19 23.28V27.718C94.19 28.4553 93.9894 29.02 93.588 29.412C93.1867 29.804 92.6174 30 91.88 30ZM99.4926 30H98.3166C98.1113 30 98.0086 29.902 98.0086 29.706V22.692C98.0086 22.5893 97.9573 22.538 97.8546 22.538H96.2586C96.0626 22.538 95.9646 22.44 95.9646 22.244V21.292C95.9646 21.096 96.0626 20.998 96.2586 20.998H101.551C101.747 20.998 101.845 21.096 101.845 21.292V22.244C101.845 22.44 101.747 22.538 101.551 22.538H99.9546C99.8426 22.538 99.7866 22.5893 99.7866 22.692V29.706C99.7866 29.902 99.6886 30 99.4926 30ZM105.238 30H104.048C103.852 30 103.754 29.902 103.754 29.706V21.292C103.754 21.096 103.852 20.998 104.048 20.998H105.238C105.434 20.998 105.532 21.096 105.532 21.292V24.582C105.532 24.6847 105.588 24.736 105.7 24.736H108.066C108.168 24.736 108.22 24.6847 108.22 24.582V21.292C108.22 21.096 108.318 20.998 108.514 20.998H109.704C109.9 20.998 109.998 21.096 109.998 21.292V29.706C109.998 29.902 109.9 30 109.704 30H108.514C108.318 30 108.22 29.902 108.22 29.706V26.43C108.22 26.3273 108.168 26.276 108.066 26.276H105.7C105.588 26.276 105.532 26.3273 105.532 26.43V29.706C105.532 29.902 105.434 30 105.238 30ZM117.532 30H112.954C112.758 30 112.66 29.902 112.66 29.706V21.292C112.66 21.096 112.758 20.998 112.954 20.998H117.532C117.719 20.998 117.812 21.096 117.812 21.292V22.244C117.812 22.44 117.719 22.538 117.532 22.538H114.606C114.494 22.538 114.438 22.5893 114.438 22.692V24.512C114.438 24.6147 114.494 24.666 114.606 24.666H117C117.196 24.666 117.294 24.764 117.294 24.96V25.912C117.294 26.108 117.196 26.206 117 26.206H114.606C114.494 26.206 114.438 26.2573 114.438 26.36V28.306C114.438 28.4087 114.494 28.46 114.606 28.46H117.532C117.719 28.46 117.812 28.558 117.812 28.754V29.706C117.812 29.902 117.719 30 117.532 30ZM121.683 30H120.493C120.297 30 120.199 29.902 120.199 29.706V21.292C120.199 21.096 120.297 20.998 120.493 20.998H123.825C124.553 20.998 125.123 21.1987 125.533 21.6C125.944 22.0013 126.149 22.566 126.149 23.294V24.386C126.149 25.4407 125.734 26.1407 124.903 26.486V26.542L126.401 29.664C126.485 29.888 126.406 30 126.163 30H125.029C124.861 30 124.74 29.9813 124.665 29.944C124.591 29.9067 124.53 29.8273 124.483 29.706L123.083 26.682H122.145C122.033 26.682 121.977 26.7333 121.977 26.836V29.706C121.977 29.902 121.879 30 121.683 30ZM122.131 25.254H123.503C123.802 25.254 124.021 25.1933 124.161 25.072C124.301 24.9413 124.371 24.736 124.371 24.456V23.364C124.371 23.0747 124.301 22.8647 124.161 22.734C124.021 22.6033 123.802 22.538 123.503 22.538H122.131C122.029 22.538 121.977 22.5893 121.977 22.692V25.1C121.977 25.2027 122.029 25.254 122.131 25.254ZM134.096 30H132.906C132.71 30 132.612 29.902 132.612 29.706V21.292C132.612 21.096 132.71 20.998 132.906 20.998H137.372C137.558 20.998 137.652 21.096 137.652 21.292V22.244C137.652 22.44 137.558 22.538 137.372 22.538H134.558C134.446 22.538 134.39 22.5893 134.39 22.692V24.862C134.39 24.974 134.446 25.03 134.558 25.03H136.952C137.148 25.03 137.246 25.128 137.246 25.324V26.262C137.246 26.4673 137.148 26.57 136.952 26.57H134.558C134.446 26.57 134.39 26.6213 134.39 26.724V29.706C134.39 29.902 134.292 30 134.096 30ZM141.238 30H140.048C139.852 30 139.754 29.902 139.754 29.706V21.292C139.754 21.096 139.852 20.998 140.048 20.998H143.38C144.108 20.998 144.678 21.1987 145.088 21.6C145.499 22.0013 145.704 22.566 145.704 23.294V24.386C145.704 25.4407 145.289 26.1407 144.458 26.486V26.542L145.956 29.664C146.04 29.888 145.961 30 145.718 30H144.584C144.416 30 144.295 29.9813 144.22 29.944C144.146 29.9067 144.085 29.8273 144.038 29.706L142.638 26.682H141.7C141.588 26.682 141.532 26.7333 141.532 26.836V29.706C141.532 29.902 141.434 30 141.238 30ZM141.686 25.254H143.058C143.357 25.254 143.576 25.1933 143.716 25.072C143.856 24.9413 143.926 24.736 143.926 24.456V23.364C143.926 23.0747 143.856 22.8647 143.716 22.734C143.576 22.6033 143.357 22.538 143.058 22.538H141.686C141.584 22.538 141.532 22.5893 141.532 22.692V25.1C141.532 25.2027 141.584 25.254 141.686 25.254ZM150.701 28.46H151.695C151.993 28.46 152.203 28.3993 152.325 28.278C152.455 28.1473 152.521 27.9327 152.521 27.634V23.364C152.521 23.0653 152.455 22.8553 152.325 22.734C152.203 22.6033 151.993 22.538 151.695 22.538H150.701C150.402 22.538 150.192 22.6033 150.071 22.734C149.949 22.8553 149.889 23.0653 149.889 23.364V27.634C149.889 27.9327 149.949 28.1473 150.071 28.278C150.192 28.3993 150.402 28.46 150.701 28.46ZM151.989 30H150.421C149.683 30 149.114 29.804 148.713 29.412C148.311 29.02 148.111 28.4553 148.111 27.718V23.28C148.111 22.5427 148.311 21.978 148.713 21.586C149.114 21.194 149.683 20.998 150.421 20.998H151.989C152.726 20.998 153.295 21.194 153.697 21.586C154.098 21.978 154.299 22.5427 154.299 23.28V27.718C154.299 28.4553 154.098 29.02 153.697 29.412C153.295 29.804 152.726 30 151.989 30ZM160.469 30H158.985C158.248 30 157.679 29.804 157.277 29.412C156.876 29.02 156.675 28.4553 156.675 27.718V23.28C156.675 22.5427 156.876 21.978 157.277 21.586C157.679 21.194 158.248 20.998 158.985 20.998H160.469C161.197 20.998 161.762 21.1987 162.163 21.6C162.565 21.992 162.765 22.552 162.765 23.28V23.7C162.765 23.9053 162.667 24.008 162.471 24.008H161.281C161.085 24.008 160.987 23.9053 160.987 23.7V23.364C160.987 23.0653 160.927 22.8553 160.805 22.734C160.684 22.6033 160.474 22.538 160.175 22.538H159.265C158.976 22.538 158.766 22.6033 158.635 22.734C158.514 22.8553 158.453 23.0653 158.453 23.364V27.634C158.453 27.9327 158.514 28.1473 158.635 28.278C158.766 28.3993 158.976 28.46 159.265 28.46H160.175C160.474 28.46 160.684 28.3993 160.805 28.278C160.927 28.1473 160.987 27.9327 160.987 27.634V26.752C160.987 26.6493 160.936 26.598 160.833 26.598H159.993C159.797 26.598 159.699 26.5 159.699 26.304V25.352C159.699 25.156 159.797 25.058 159.993 25.058H162.443C162.658 25.058 162.765 25.1653 162.765 25.38V27.718C162.765 28.446 162.565 29.0107 162.163 29.412C161.762 29.804 161.197 30 160.469 30Z" fill="#FEE1DB"/>
<g style="mix-blend-mode:luminosity">
<path d="M0 0H37L33 4H0V0Z" fill="#124835"/>
</g>
<path d="M259.282 25.2773C259.282 25.5117 259.186 25.7266 258.994 25.9219L255.298 29.5352C255.223 29.6068 255.142 29.6621 255.054 29.7012C254.963 29.737 254.865 29.7549 254.761 29.7549C254.614 29.7549 254.482 29.7207 254.365 29.6523C254.245 29.5807 254.15 29.4863 254.082 29.3691C254.01 29.252 253.975 29.1217 253.975 28.9785C253.975 28.7604 254.058 28.5684 254.224 28.4023L257.646 25.0771L257.646 25.4727L254.224 22.1572C254.058 21.9912 253.975 21.8008 253.975 21.5859C253.975 21.4427 254.01 21.3125 254.082 21.1953C254.15 21.0781 254.245 20.9854 254.365 20.917C254.482 20.8454 254.614 20.8096 254.761 20.8096C254.972 20.8096 255.151 20.8828 255.298 21.0293L258.994 24.6377C259.092 24.7354 259.163 24.8363 259.209 24.9404C259.255 25.0446 259.279 25.1569 259.282 25.2773Z" fill="#FEE1DB"/>
</svg>
