<svg width="270" height="40" viewBox="0 0 270 40" fill="none" xmlns="http://www.w3.org/2000/svg">
<path d="M0 6H34L40 0H270V30L265 35L260 40H0V6Z" fill="#E62E05"/>
<path d="M0 6H34L40 0H270V30L265 35L260 40H0V6Z" fill="#E62E05"/>
<path d="M11.606 30H10.08C9.34267 30 8.77333 29.804 8.372 29.412C7.97067 29.02 7.77 28.4553 7.77 27.718V23.28C7.77 22.5427 7.97067 21.978 8.372 21.586C8.77333 21.194 9.34267 20.998 10.08 20.998H11.606C12.334 20.998 12.8987 21.1987 13.3 21.6C13.7107 21.992 13.916 22.552 13.916 23.28V23.938C13.916 24.1433 13.8133 24.246 13.608 24.246H12.432C12.236 24.246 12.138 24.1433 12.138 23.938V23.364C12.138 23.0653 12.0727 22.8553 11.942 22.734C11.8207 22.6033 11.6107 22.538 11.312 22.538H10.36C10.0707 22.538 9.86067 22.6033 9.73 22.734C9.60867 22.8553 9.548 23.0653 9.548 23.364V27.634C9.548 27.9327 9.60867 28.1473 9.73 28.278C9.86067 28.3993 10.0707 28.46 10.36 28.46H11.312C11.6107 28.46 11.8207 28.3993 11.942 28.278C12.0727 28.1473 12.138 27.9327 12.138 27.634V27.06C12.138 26.8547 12.236 26.752 12.432 26.752H13.608C13.8133 26.752 13.916 26.8547 13.916 27.06V27.718C13.916 28.446 13.7107 29.0107 13.3 29.412C12.8987 29.804 12.334 30 11.606 30ZM21.1832 30H16.5772C16.3812 30 16.2832 29.902 16.2832 29.706V21.292C16.2832 21.096 16.3812 20.998 16.5772 20.998H17.7672C17.9632 20.998 18.0612 21.096 18.0612 21.292V28.292C18.0612 28.3947 18.1172 28.446 18.2292 28.446H21.1832C21.3699 28.446 21.4632 28.5487 21.4632 28.754V29.706C21.4632 29.902 21.3699 30 21.1832 30ZM25.2603 21.292V29.706C25.2603 29.902 25.1623 30 24.9663 30H23.7763C23.5803 30 23.4823 29.902 23.4823 29.706V21.292C23.4823 21.096 23.5803 20.998 23.7763 20.998H24.9663C25.1623 20.998 25.2603 21.096 25.2603 21.292ZM31.6807 30H30.1547C29.4174 30 28.848 29.804 28.4467 29.412C28.0454 29.02 27.8447 28.4553 27.8447 27.718V23.28C27.8447 22.5427 28.0454 21.978 28.4467 21.586C28.848 21.194 29.4174 20.998 30.1547 20.998H31.6807C32.4087 20.998 32.9734 21.1987 33.3747 21.6C33.7854 21.992 33.9907 22.552 33.9907 23.28V23.938C33.9907 24.1433 33.888 24.246 33.6827 24.246H32.5067C32.3107 24.246 32.2127 24.1433 32.2127 23.938V23.364C32.2127 23.0653 32.1474 22.8553 32.0167 22.734C31.8954 22.6033 31.6854 22.538 31.3867 22.538H30.4347C30.1454 22.538 29.9354 22.6033 29.8047 22.734C29.6834 22.8553 29.6227 23.0653 29.6227 23.364V27.634C29.6227 27.9327 29.6834 28.1473 29.8047 28.278C29.9354 28.3993 30.1454 28.46 30.4347 28.46H31.3867C31.6854 28.46 31.8954 28.3993 32.0167 28.278C32.1474 28.1473 32.2127 27.9327 32.2127 27.634V27.06C32.2127 26.8547 32.3107 26.752 32.5067 26.752H33.6827C33.888 26.752 33.9907 26.8547 33.9907 27.06V27.718C33.9907 28.446 33.7854 29.0107 33.3747 29.412C32.9734 29.804 32.4087 30 31.6807 30ZM37.8419 30H36.6519C36.4559 30 36.3579 29.902 36.3579 29.706V21.292C36.3579 21.096 36.4559 20.998 36.6519 20.998H37.8419C38.0379 20.998 38.1359 21.096 38.1359 21.292V25.282H38.1639C38.2386 25.058 38.3832 24.7687 38.5979 24.414L40.7259 21.292C40.8472 21.096 41.0292 20.998 41.2719 20.998H42.6439C42.7466 20.998 42.8072 21.0307 42.8259 21.096C42.8539 21.152 42.8306 21.2267 42.7559 21.32L40.0959 25.002L43.0639 29.65C43.1292 29.762 43.1386 29.8507 43.0919 29.916C43.0546 29.972 42.9706 30 42.8399 30H41.8179C41.4912 30 41.2719 29.902 41.1599 29.706L39.0179 26.276L38.1359 27.312V29.706C38.1359 29.902 38.0379 30 37.8419 30ZM51.7067 30H50.5307C50.3254 30 50.2227 29.902 50.2227 29.706V22.692C50.2227 22.5893 50.1714 22.538 50.0687 22.538H48.4727C48.2767 22.538 48.1787 22.44 48.1787 22.244V21.292C48.1787 21.096 48.2767 20.998 48.4727 20.998H53.7647C53.9607 20.998 54.0587 21.096 54.0587 21.292V22.244C54.0587 22.44 53.9607 22.538 53.7647 22.538H52.1687C52.0567 22.538 52.0007 22.5893 52.0007 22.692V29.706C52.0007 29.902 51.9027 30 51.7067 30ZM58.4177 28.46H59.4117C59.7104 28.46 59.9204 28.3993 60.0417 28.278C60.1724 28.1473 60.2377 27.9327 60.2377 27.634V23.364C60.2377 23.0653 60.1724 22.8553 60.0417 22.734C59.9204 22.6033 59.7104 22.538 59.4117 22.538H58.4177C58.1191 22.538 57.9091 22.6033 57.7877 22.734C57.6664 22.8553 57.6057 23.0653 57.6057 23.364V27.634C57.6057 27.9327 57.6664 28.1473 57.7877 28.278C57.9091 28.3993 58.1191 28.46 58.4177 28.46ZM59.7057 30H58.1377C57.4004 30 56.8311 29.804 56.4297 29.412C56.0284 29.02 55.8277 28.4553 55.8277 27.718V23.28C55.8277 22.5427 56.0284 21.978 56.4297 21.586C56.8311 21.194 57.4004 20.998 58.1377 20.998H59.7057C60.4431 20.998 61.0124 21.194 61.4137 21.586C61.8151 21.978 62.0157 22.5427 62.0157 23.28V27.718C62.0157 28.4553 61.8151 29.02 61.4137 29.412C61.0124 29.804 60.4431 30 59.7057 30ZM73.0545 20.998H74.2305C74.4359 20.998 74.5385 21.0913 74.5385 21.278V27.718C74.5385 28.446 74.3332 29.0107 73.9225 29.412C73.5212 29.804 72.9565 30 72.2285 30H70.6885C69.9512 30 69.3819 29.804 68.9805 29.412C68.5792 29.02 68.3785 28.4553 68.3785 27.718V21.292C68.3785 21.096 68.4765 20.998 68.6725 20.998H69.8625C70.0585 20.998 70.1565 21.096 70.1565 21.292V27.634C70.1565 27.9327 70.2172 28.1473 70.3385 28.278C70.4692 28.3993 70.6792 28.46 70.9685 28.46H71.9345C72.2332 28.46 72.4432 28.3993 72.5645 28.278C72.6952 28.1473 72.7605 27.9327 72.7605 27.634V21.292C72.7605 21.096 72.8585 20.998 73.0545 20.998ZM78.6065 30H77.4165C77.2205 30 77.1225 29.902 77.1225 29.706V21.292C77.1225 21.096 77.2205 20.998 77.4165 20.998H80.8325C81.5605 20.998 82.1252 21.1987 82.5265 21.6C82.9278 21.992 83.1285 22.552 83.1285 23.28V24.624C83.1285 25.352 82.9278 25.9167 82.5265 26.318C82.1252 26.71 81.5605 26.906 80.8325 26.906H79.0685C78.9565 26.906 78.9005 26.9573 78.9005 27.06V29.706C78.9005 29.902 78.8025 30 78.6065 30ZM79.0545 25.352H80.5385C80.8372 25.352 81.0472 25.2913 81.1685 25.17C81.2898 25.0393 81.3505 24.8293 81.3505 24.54V23.364C81.3505 23.0653 81.2898 22.8553 81.1685 22.734C81.0472 22.6033 80.8372 22.538 80.5385 22.538H79.0545C78.9518 22.538 78.9005 22.5893 78.9005 22.692V25.198C78.9005 25.3007 78.9518 25.352 79.0545 25.352ZM89.0403 30H87.5563C86.819 30 86.2497 29.804 85.8483 29.412C85.447 29.02 85.2463 28.4553 85.2463 27.718V23.28C85.2463 22.5427 85.447 21.978 85.8483 21.586C86.2497 21.194 86.819 20.998 87.5563 20.998H89.0403C89.7683 20.998 90.333 21.1987 90.7343 21.6C91.1357 21.992 91.3363 22.552 91.3363 23.28V23.7C91.3363 23.9053 91.2383 24.008 91.0423 24.008H89.8523C89.6563 24.008 89.5583 23.9053 89.5583 23.7V23.364C89.5583 23.0653 89.4977 22.8553 89.3763 22.734C89.255 22.6033 89.045 22.538 88.7463 22.538H87.8363C87.547 22.538 87.337 22.6033 87.2063 22.734C87.085 22.8553 87.0243 23.0653 87.0243 23.364V27.634C87.0243 27.9327 87.085 28.1473 87.2063 28.278C87.337 28.3993 87.547 28.46 87.8363 28.46H88.7463C89.045 28.46 89.255 28.3993 89.3763 28.278C89.4977 28.1473 89.5583 27.9327 89.5583 27.634V26.752C89.5583 26.6493 89.507 26.598 89.4043 26.598H88.5643C88.3683 26.598 88.2703 26.5 88.2703 26.304V25.352C88.2703 25.156 88.3683 25.058 88.5643 25.058H91.0143C91.229 25.058 91.3363 25.1653 91.3363 25.38V27.718C91.3363 28.446 91.1357 29.0107 90.7343 29.412C90.333 29.804 89.7683 30 89.0403 30ZM95.3392 30H94.1492C93.9532 30 93.8552 29.902 93.8552 29.706V21.292C93.8552 21.096 93.9532 20.998 94.1492 20.998H97.4812C98.2092 20.998 98.7786 21.1987 99.1892 21.6C99.5999 22.0013 99.8052 22.566 99.8052 23.294V24.386C99.8052 25.4407 99.3899 26.1407 98.5592 26.486V26.542L100.057 29.664C100.141 29.888 100.062 30 99.8192 30H98.6852C98.5172 30 98.3959 29.9813 98.3212 29.944C98.2466 29.9067 98.1859 29.8273 98.1392 29.706L96.7392 26.682H95.8012C95.6892 26.682 95.6332 26.7333 95.6332 26.836V29.706C95.6332 29.902 95.5352 30 95.3392 30ZM95.7872 25.254H97.1592C97.4579 25.254 97.6772 25.1933 97.8172 25.072C97.9572 24.9413 98.0272 24.736 98.0272 24.456V23.364C98.0272 23.0747 97.9572 22.8647 97.8172 22.734C97.6772 22.6033 97.4579 22.538 97.1592 22.538H95.7872C95.6846 22.538 95.6332 22.5893 95.6332 22.692V25.1C95.6332 25.2027 95.6846 25.254 95.7872 25.254ZM103.289 30H101.945C101.777 30 101.721 29.902 101.777 29.706L103.989 21.292C104.055 21.096 104.195 20.998 104.409 20.998H106.271C106.505 20.998 106.645 21.096 106.691 21.292L108.903 29.706C108.959 29.902 108.903 30 108.735 30H107.391C107.289 30 107.219 29.9813 107.181 29.944C107.144 29.8973 107.116 29.818 107.097 29.706L106.705 28.166H103.975L103.583 29.706C103.565 29.818 103.532 29.8973 103.485 29.944C103.448 29.9813 103.383 30 103.289 30ZM105.319 22.692L104.311 26.738H106.383L105.375 22.692H105.319ZM112.916 28.46H114.442C114.741 28.46 114.951 28.3993 115.072 28.278C115.203 28.1473 115.268 27.9327 115.268 27.634V23.364C115.268 23.0653 115.203 22.8553 115.072 22.734C114.951 22.6033 114.741 22.538 114.442 22.538H112.916C112.814 22.538 112.762 22.5893 112.762 22.692V28.306C112.762 28.4087 112.814 28.46 112.916 28.46ZM110.984 29.706V21.292C110.984 21.096 111.082 20.998 111.278 20.998H114.736C115.464 20.998 116.029 21.1987 116.43 21.6C116.841 21.992 117.046 22.552 117.046 23.28V27.718C117.046 28.446 116.841 29.0107 116.43 29.412C116.029 29.804 115.464 30 114.736 30H111.278C111.082 30 110.984 29.902 110.984 29.706ZM124.435 30H119.857C119.661 30 119.563 29.902 119.563 29.706V21.292C119.563 21.096 119.661 20.998 119.857 20.998H124.435C124.621 20.998 124.715 21.096 124.715 21.292V22.244C124.715 22.44 124.621 22.538 124.435 22.538H121.509C121.397 22.538 121.341 22.5893 121.341 22.692V24.512C121.341 24.6147 121.397 24.666 121.509 24.666H123.903C124.099 24.666 124.197 24.764 124.197 24.96V25.912C124.197 26.108 124.099 26.206 123.903 26.206H121.509C121.397 26.206 121.341 26.2573 121.341 26.36V28.306C121.341 28.4087 121.397 28.46 121.509 28.46H124.435C124.621 28.46 124.715 28.558 124.715 28.754V29.706C124.715 29.902 124.621 30 124.435 30Z" fill="#FEE1DB"/>
<g style="mix-blend-mode:luminosity">
<path d="M0 0H37L33 4H0V0Z" fill="#124835"/>
</g>
<path d="M259.282 25.2773C259.282 25.5117 259.186 25.7266 258.994 25.9219L255.298 29.5352C255.223 29.6068 255.142 29.6621 255.054 29.7012C254.963 29.737 254.865 29.7549 254.761 29.7549C254.614 29.7549 254.482 29.7207 254.365 29.6523C254.245 29.5807 254.15 29.4863 254.082 29.3691C254.01 29.252 253.975 29.1217 253.975 28.9785C253.975 28.7604 254.058 28.5684 254.224 28.4023L257.646 25.0771L257.646 25.4727L254.224 22.1572C254.058 21.9912 253.975 21.8008 253.975 21.5859C253.975 21.4427 254.01 21.3125 254.082 21.1953C254.15 21.0781 254.245 20.9854 254.365 20.917C254.482 20.8454 254.614 20.8096 254.761 20.8096C254.972 20.8096 255.151 20.8828 255.298 21.0293L258.994 24.6377C259.092 24.7354 259.163 24.8363 259.209 24.9404C259.255 25.0446 259.279 25.1569 259.282 25.2773Z" fill="#FEE1DB"/>
</svg>
