<svg width="822" height="572" viewBox="0 0 822 572" fill="none" xmlns="http://www.w3.org/2000/svg">
<path d="M1 0.5H0.5V1V571V571.5H1H821H821.5V571V13.8V13.3H821H49.2166L37.3648 0.658029L37.2166 0.5H37H1Z" fill="#081F17" fill-opacity="0.95"/>
<path d="M1 0.5H0.5V1V571V571.5H1H821H821.5V571V13.8V13.3H821H49.2166L37.3648 0.658029L37.2166 0.5H37H1Z" stroke="#75FF72"/>
<path d="M1 0.5H0.5V1V571V571.5H1H821H821.5V571V13.8V13.3H821H49.2166L37.3648 0.658029L37.2166 0.5H37H1Z" stroke="#025000"/>
</svg>
